SplineFontDB: 3.2
FontName: Altinn-DINExp-Italic
FullName: Altinn-DIN Exp Italic
FamilyName: Altinn-DIN Exp
Weight: Book
Copyright: Copyright (c) 2019 Altinn. All rights reserved.
Version: 2.00
ItalicAngle: -12
UnderlinePosition: -153.6
UnderlineWidth: 51.2
Ascent: 782
Descent: 242
InvalidEm: 0
sfntRevision: 0x00010000
LayerCount: 2
Layer: 0 1 "Back" 1
Layer: 1 1 "Fore" 0
XUID: [1021 976 -1802971697 11196]
StyleMap: 0x0001
FSType: 0
OS2Version: 4
OS2_WeightWidthSlopeOnly: 1
OS2_UseTypoMetrics: 1
CreationTime: 1462909533
ModificationTime: 1574597943
PfmFamily: 33
TTFWeight: 400
TTFWidth: 7
LineGap: 0
VLineGap: 0
Panose: 2 11 8 4 2 2 2 10 2 4
OS2TypoAscent: 801
OS2TypoAOffset: 0
OS2TypoDescent: -248
OS2TypoDOffset: 0
OS2TypoLinegap: 0
OS2WinAscent: 924
OS2WinAOffset: 0
OS2WinDescent: 188
OS2WinDOffset: 0
HheadAscent: 924
HheadAOffset: 0
HheadDescent: -188
HheadDOffset: 0
OS2SubXSize: 666
OS2SubYSize: 614
OS2SubXOff: -16
OS2SubYOff: 77
OS2SupXSize: 666
OS2SupYSize: 614
OS2SupXOff: 76
OS2SupYOff: 358
OS2StrikeYSize: 51
OS2StrikeYPos: 313
OS2CapHeight: 707
OS2XHeight: 523
OS2Vendor: 'MONO'
OS2CodePages: 00000001.00000000
OS2UnicodeRanges: 8000006f.4000000a.00000000.00000000
Lookup: 1 0 0 "'rtla' Right to Left Alternates lookup 0" { "'rtla' Right to Left Alternates lookup 0 subtable"  } ['rtla' ('DFLT' <'dflt' > ) ]
Lookup: 1 0 0 "'sups' Superscript lookup 1" { "'sups' Superscript lookup 1 subtable" ("superior") } ['sups' ('DFLT' <'dflt' > ) ]
Lookup: 4 0 0 "'frac' Diagonal Fractions lookup 2" { "'frac' Diagonal Fractions lookup 2 subtable"  } ['frac' ('DFLT' <'dflt' > ) ]
Lookup: 258 0 0 "'kern' Horizontal Kerning in Latin lookup 0" { "'kern' Horizontal Kerning in Latin lookup 0 subtable"  } ['kern' ('DFLT' <'dflt' > 'latn' <'dflt' > ) ]
Lookup: 258 0 0 "Pairwise Positioning (kerning) lookup 1" { "Pairwise Positioning (kerning) lookup 1 subtable"  } []
Lookup: 258 0 0 "Pairwise Positioning (kerning) lookup 2" { "Pairwise Positioning (kerning) lookup 2 subtable"  } []

StartChar: .notdef
Encoding: 65536 -1 0
Width: 614
Flags: W
LayerCount: 2
Fore
SplineSet
118 707 m 1,0,-1
 524 707 l 1,1,-1
 524 0 l 1,2,-1
 118 0 l 1,3,-1
 118 707 l 1,0,-1
489 35 m 1,4,-1
 489 672 l 1,5,-1
 153 672 l 1,6,-1
 153 35 l 1,7,-1
 489 35 l 1,4,-1
EndSplineSet
EndChar

StartChar: exclam
Encoding: 33 33 5
Width: 247
GlyphClass: 2
Flags: W
LayerCount: 2
Fore
SplineSet
167 707 m 1,0,-1
 270 707 l 1,1,-1
 147 211 l 1,2,-1
 79 211 l 1,3,-1
 167 707 l 1,0,-1
39 106 m 1,4,-1
 142 106 l 1,5,-1
 120 0 l 1,6,-1
 16 0 l 1,7,-1
 39 106 l 1,4,-1
EndSplineSet
EndChar

StartChar: quotedbl
Encoding: 34 34 6
Width: 349
GlyphClass: 2
Flags: W
LayerCount: 2
Fore
SplineSet
143 707 m 1,0,-1
 227 707 l 1,1,-1
 172 450 l 1,2,-1
 89 450 l 1,3,-1
 143 707 l 1,0,-1
311 707 m 1,4,-1
 394 707 l 1,5,-1
 340 450 l 1,6,-1
 256 450 l 1,7,-1
 311 707 l 1,4,-1
EndSplineSet
EndChar

StartChar: numbersign
Encoding: 35 35 7
Width: 593
GlyphClass: 2
Flags: W
LayerCount: 2
Fore
SplineSet
483 433 m 1,0,-1
 434 290 l 1,1,-1
 549 290 l 1,2,-1
 535 221 l 1,3,-1
 411 221 l 1,4,-1
 335 0 l 1,5,-1
 260 0 l 1,6,-1
 337 221 l 1,7,-1
 202 221 l 1,8,-1
 126 0 l 1,9,-1
 51 0 l 1,10,-1
 127 221 l 1,11,-1
 14 221 l 1,12,-1
 30 290 l 1,13,-1
 151 290 l 1,14,-1
 200 433 l 1,15,-1
 87 433 l 1,16,-1
 101 501 l 1,17,-1
 223 501 l 1,18,-1
 294 707 l 1,19,-1
 369 707 l 1,20,-1
 298 501 l 1,21,-1
 433 501 l 1,22,-1
 504 707 l 1,23,-1
 578 707 l 1,24,-1
 507 501 l 1,25,-1
 622 501 l 1,26,-1
 606 433 l 1,27,-1
 483 433 l 1,0,-1
410 433 m 1,28,-1
 274 433 l 1,29,-1
 225 290 l 1,30,-1
 360 290 l 1,31,-1
 410 433 l 1,28,-1
EndSplineSet
EndChar

StartChar: dollar
Encoding: 36 36 8
Width: 528
GlyphClass: 2
Flags: W
LayerCount: 2
Fore
SplineSet
438 497 m 1,0,1
 439 504 439 504 439 519 c 0,2,3
 439 555 439 555 421 574.5 c 128,-1,4
 403 594 403 594 367 600 c 1,5,-1
 323 394 l 1,6,-1
 338 392 l 2,7,8
 479 372 479 372 479 256 c 0,9,10
 479 223 479 223 469 196 c 0,11,12
 445 122 445 122 388 79 c 128,-1,13
 331 36 331 36 246 30 c 1,14,-1
 226 -60 l 1,15,-1
 157 -60 l 1,16,-1
 176 31 l 1,17,18
 101 39 101 39 60 77.5 c 128,-1,19
 19 116 19 116 19 179 c 0,20,21
 19 197 19 197 23 219 c 1,22,-1
 108 219 l 1,23,24
 106 203 106 203 105 197 c 0,25,26
 105 120 105 120 193 108 c 1,27,-1
 239 323 l 1,28,-1
 233 324 l 2,29,30
 163 335 163 335 126.5 368.5 c 128,-1,31
 90 402 90 402 90 461 c 0,32,33
 90 487 90 487 97 512 c 0,34,35
 117 585 117 585 174 628.5 c 128,-1,36
 231 672 231 672 313 677 c 1,37,-1
 331 759 l 1,38,-1
 400 759 l 1,39,-1
 383 675 l 1,40,41
 450 666 450 666 487.5 629 c 128,-1,42
 525 592 525 592 525 531 c 0,43,44
 525 508 525 508 523 497 c 1,45,-1
 438 497 l 1,0,1
196 430 m 128,-1,47
 215 413 215 413 256 404 c 1,48,-1
 297 601 l 1,49,50
 251 595 251 595 222 571.5 c 128,-1,51
 193 548 193 548 183 511 c 0,52,53
 177 495 177 495 177 479 c 0,54,46
 177 447 177 447 196 430 c 128,-1,47
305 313 m 1,55,-1
 262 108 l 1,56,57
 361 118 361 118 387 205 c 0,58,59
 391 221 391 221 391 239 c 0,60,61
 391 272 391 272 371 288.5 c 128,-1,62
 351 305 351 305 309 312 c 2,63,-1
 305 313 l 1,55,-1
EndSplineSet
EndChar

StartChar: percent
Encoding: 37 37 9
Width: 1020
GlyphClass: 2
Flags: W
LayerCount: 2
Fore
SplineSet
115.5 300.5 m 128,-1,1
 83 329 83 329 83 382 c 0,2,3
 83 410 83 410 90 441 c 2,4,-1
 115 554 l 2,5,6
 131 633 131 633 172.5 673.5 c 128,-1,7
 214 714 214 714 285 714 c 0,8,9
 345 714 345 714 378 686 c 128,-1,10
 411 658 411 658 411 607 c 0,11,12
 411 583 411 583 403 551 c 2,13,-1
 380 438 l 2,14,15
 363 354 363 354 321.5 313 c 128,-1,16
 280 272 280 272 208 272 c 0,17,0
 148 272 148 272 115.5 300.5 c 128,-1,1
755 709 m 1,18,-1
 833 709 l 1,19,-1
 305 0 l 1,20,-1
 228 0 l 1,21,-1
 755 709 l 1,18,-1
271 364.5 m 128,-1,23
 288 387 288 387 300 441 c 2,24,-1
 322 543 l 2,25,26
 328 573 328 573 328 592 c 0,27,28
 328 644 328 644 274 644 c 0,29,30
 240 644 240 644 222.5 621 c 128,-1,31
 205 598 205 598 194 546 c 2,32,-1
 172 445 l 2,33,34
 165 409 165 409 165 395 c 0,35,36
 165 342 165 342 219 342 c 0,37,22
 254 342 254 342 271 364.5 c 128,-1,23
681.5 22 m 128,-1,39
 649 50 649 50 649 103 c 0,40,41
 649 131 649 131 656 163 c 2,42,-1
 680 275 l 2,43,44
 697 355 697 355 738 395 c 128,-1,45
 779 435 779 435 851 435 c 0,46,47
 911 435 911 435 943.5 407.5 c 128,-1,48
 976 380 976 380 976 329 c 0,49,50
 976 310 976 310 970 272 c 2,51,-1
 946 160 l 2,52,53
 928 76 928 76 886.5 35 c 128,-1,54
 845 -6 845 -6 774 -6 c 0,55,38
 714 -6 714 -6 681.5 22 c 128,-1,39
836.5 85.5 m 128,-1,57
 854 109 854 109 865 163 c 2,58,-1
 887 264 l 2,59,60
 894 298 894 298 894 313 c 0,61,62
 894 365 894 365 840 366 c 0,63,64
 806 366 806 366 788.5 343.5 c 128,-1,65
 771 321 771 321 759 267 c 2,66,-1
 737 166 l 2,67,68
 731 137 731 137 731 117 c 0,69,70
 731 63 731 63 784 62 c 0,71,56
 819 62 819 62 836.5 85.5 c 128,-1,57
EndSplineSet
EndChar

StartChar: ampersand
Encoding: 38 38 10
Width: 677
GlyphClass: 2
Flags: W
LayerCount: 2
Fore
SplineSet
525 87.5 m 128,-1,1
 540 80 540 80 560 80 c 2,2,-1
 584 80 l 1,3,-1
 567 0 l 1,4,-1
 529 0 l 2,5,6
 493 0 493 0 473 12 c 128,-1,7
 453 24 453 24 433 54 c 2,8,-1
 419 79 l 1,9,10
 362 31 362 31 312 9.5 c 128,-1,11
 262 -12 262 -12 208 -12 c 0,12,13
 126 -12 126 -12 81 31.5 c 128,-1,14
 36 75 36 75 36 146 c 0,15,16
 36 220 36 220 83.5 278 c 128,-1,17
 131 336 131 336 230 394 c 1,18,19
 203 441 203 441 191 475.5 c 128,-1,20
 179 510 179 510 179 542 c 0,21,22
 179 591 179 591 202 631.5 c 128,-1,23
 225 672 225 672 267 695.5 c 128,-1,24
 309 719 309 719 364 719 c 0,25,26
 434 719 434 719 477 683 c 128,-1,27
 520 647 520 647 520 584 c 0,28,29
 520 522 520 522 477.5 474 c 128,-1,30
 435 426 435 426 342 372 c 1,31,-1
 443 204 l 1,32,-1
 562 313 l 1,33,-1
 610 259 l 1,34,-1
 483 138 l 1,35,-1
 499 113 l 2,36,0
 510 95 510 95 525 87.5 c 128,-1,1
291.5 619 m 128,-1,38
 266 592 266 592 266 548 c 0,39,40
 266 524 266 524 275 498.5 c 128,-1,41
 284 473 284 473 305 433 c 1,42,-1
 308 435 l 1,43,44
 379 476 379 476 407 507 c 128,-1,45
 435 538 435 538 435 578 c 0,46,47
 435 610 435 610 414 628 c 128,-1,48
 393 646 393 646 359 646 c 0,49,37
 317 646 317 646 291.5 619 c 128,-1,38
296.5 84.5 m 128,-1,51
 333 102 333 102 380 143 c 1,52,-1
 267 332 l 1,53,54
 192 286 192 286 157.5 246 c 128,-1,55
 123 206 123 206 123 156 c 0,56,57
 123 115 123 115 149 91 c 128,-1,58
 175 67 175 67 221 67 c 0,59,50
 260 67 260 67 296.5 84.5 c 128,-1,51
EndSplineSet
EndChar

StartChar: quotesingle
Encoding: 39 39 11
Width: 182
GlyphClass: 2
Flags: W
LayerCount: 2
Fore
SplineSet
143 707 m 1,0,-1
 227 707 l 1,1,-1
 172 450 l 1,2,-1
 89 450 l 1,3,-1
 143 707 l 1,0,-1
EndSplineSet
EndChar

StartChar: parenleft
Encoding: 40 40 12
Width: 318
GlyphClass: 2
Flags: W
LayerCount: 2
Fore
SplineSet
56 193 m 0,1,2
 56 269 56 269 72 340 c 0,3,4
 97 455 97 455 155 561 c 128,-1,5
 213 667 213 667 301 758 c 1,6,-1
 369 758 l 1,7,8
 290 668 290 668 236.5 560.5 c 128,-1,9
 183 453 183 453 160 340 c 0,10,11
 142 254 142 254 141 168 c 0,12,13
 141 32 141 32 189 -86 c 1,14,-1
 123 -86 l 1,15,0
 56 43 56 43 56 193 c 0,1,2
EndSplineSet
Substitution2: "'rtla' Right to Left Alternates lookup 0 subtable" parenright
EndChar

StartChar: parenright
Encoding: 41 41 13
Width: 318
GlyphClass: 2
Flags: W
LayerCount: 2
Fore
SplineSet
113.5 111.5 m 128,-1,1
 167 219 167 219 190 332 c 0,2,3
 208 418 208 418 209 503 c 0,4,5
 209 639 209 639 161 758 c 1,6,-1
 227 758 l 1,7,8
 294 629 294 629 294 478 c 0,9,10
 294 405 294 405 279 332 c 0,11,12
 255 218 255 218 196.5 111.5 c 128,-1,13
 138 5 138 5 49 -86 c 1,14,-1
 -18 -86 l 1,15,0
 60 4 60 4 113.5 111.5 c 128,-1,1
EndSplineSet
Substitution2: "'rtla' Right to Left Alternates lookup 0 subtable" parenleft
EndChar

StartChar: asterisk
Encoding: 42 42 14
Width: 419
GlyphClass: 2
Flags: W
LayerCount: 2
Fore
SplineSet
239 523 m 1,0,-1
 127 470 l 1,1,-1
 109 514 l 1,2,-1
 223 565 l 1,3,-1
 131 614 l 1,4,-1
 161 658 l 1,5,-1
 256 604 l 1,6,-1
 278 707 l 1,7,-1
 332 707 l 1,8,-1
 310 605 l 1,9,-1
 422 659 l 1,10,-1
 439 614 l 1,11,-1
 327 564 l 1,12,-1
 419 514 l 1,13,-1
 390 470 l 1,14,-1
 293 525 l 1,15,-1
 270 417 l 1,16,-1
 216 417 l 1,17,-1
 239 523 l 1,0,-1
EndSplineSet
EndChar

StartChar: plus
Encoding: 43 43 15
Width: 527
GlyphClass: 2
Flags: W
LayerCount: 2
Fore
SplineSet
227 242 m 1,0,-1
 59 242 l 1,1,-1
 59 324 l 1,2,-1
 227 324 l 1,3,-1
 227 492 l 1,4,-1
 310 492 l 1,5,-1
 310 324 l 1,6,-1
 477 324 l 1,7,-1
 477 242 l 1,8,-1
 310 242 l 1,9,-1
 310 74 l 1,10,-1
 227 74 l 1,11,-1
 227 242 l 1,0,-1
EndSplineSet
EndChar

StartChar: comma
Encoding: 44 44 16
Width: 183
GlyphClass: 2
Flags: W
LayerCount: 2
Fore
SplineSet
17 109 m 1,0,-1
 101 109 l 1,1,-1
 62 -73 l 1,2,-1
 -38 -148 l 1,3,-1
 17 109 l 1,0,-1
EndSplineSet
EndChar

StartChar: hyphen
Encoding: 45 45 17
Width: 427
GlyphClass: 2
Flags: W
LayerCount: 2
Fore
SplineSet
84 396 m 1,0,-1
 400 396 l 1,1,-1
 383 313 l 1,2,-1
 67 313 l 1,3,-1
 84 396 l 1,0,-1
EndSplineSet
EndChar

StartChar: period
Encoding: 46 46 18
Width: 246
GlyphClass: 2
Flags: W
LayerCount: 2
Fore
SplineSet
38 110 m 1,0,-1
 144 110 l 1,1,-1
 121 0 l 1,2,-1
 15 0 l 1,3,-1
 38 110 l 1,0,-1
EndSplineSet
EndChar

StartChar: slash
Encoding: 47 47 19
Width: 442
GlyphClass: 2
Flags: W
LayerCount: 2
Fore
SplineSet
407 709 m 1,0,-1
 482 709 l 1,1,-1
 74 -10 l 1,2,-1
 -2 -10 l 1,3,-1
 407 709 l 1,0,-1
EndSplineSet
EndChar

StartChar: zero
Encoding: 48 48 20
Width: 559
GlyphClass: 2
Flags: W
LayerCount: 2
Fore
SplineSet
101.5 34 m 128,-1,1
 50 78 50 78 50 163 c 0,2,3
 50 205 50 205 61 256 c 2,4,-1
 109 481 l 2,5,6
 134 598 134 598 194 657.5 c 128,-1,7
 254 717 254 717 356 717 c 0,8,9
 445 717 445 717 497 673 c 128,-1,10
 549 629 549 629 549 545 c 0,11,12
 549 504 549 504 538 453 c 2,13,-1
 490 228 l 2,14,15
 465 109 465 109 404.5 49.5 c 128,-1,16
 344 -10 344 -10 242 -10 c 0,17,0
 153 -10 153 -10 101.5 34 c 128,-1,1
347 113 m 128,-1,19
 382 153 382 153 401 245 c 2,20,-1
 442 442 l 2,21,22
 454 494 454 494 455 532 c 0,23,24
 455 633 455 633 350 634 c 0,25,26
 285 634 285 634 250.5 593.5 c 128,-1,27
 216 553 216 553 197 460 c 2,28,-1
 155 264 l 2,29,30
 144 211 144 211 143 176 c 0,31,32
 143 73 143 73 248 73 c 0,33,18
 312 73 312 73 347 113 c 128,-1,19
EndSplineSet
EndChar

StartChar: one
Encoding: 49 49 21
Width: 371
GlyphClass: 2
Flags: W
LayerCount: 2
Fore
SplineSet
270 608 m 1,0,-1
 100 515 l 1,1,-1
 121 612 l 1,2,-1
 291 707 l 1,3,-1
 383 707 l 1,4,-1
 232 0 l 1,5,-1
 140 0 l 1,6,-1
 270 608 l 1,0,-1
EndSplineSet
Substitution2: "'sups' Superscript lookup 1 subtable" uni00B9
EndChar

StartChar: two
Encoding: 50 50 22
Width: 538
GlyphClass: 2
Flags: W
LayerCount: 2
Fore
SplineSet
18 75 m 1,0,-1
 348 383 l 2,1,2
 385 416 385 416 407.5 445 c 128,-1,3
 430 474 430 474 438 503 c 0,4,5
 445 531 445 531 445 550 c 0,6,7
 445 591 445 591 417.5 613.5 c 128,-1,8
 390 636 390 636 340 636 c 0,9,10
 285 636 285 636 249.5 609 c 128,-1,11
 214 582 214 582 204 530 c 2,12,-1
 201 513 l 1,13,-1
 110 513 l 1,14,-1
 114 535 l 2,15,16
 129 621 129 621 189 669 c 128,-1,17
 249 717 249 717 345 717 c 0,18,19
 435 717 435 717 488 674.5 c 128,-1,20
 541 632 541 632 541 558 c 0,21,22
 541 534 541 534 529 494 c 0,23,24
 518 452 518 452 488 413 c 128,-1,25
 458 374 458 374 403 324 c 2,26,-1
 151 82 l 1,27,-1
 444 82 l 1,28,-1
 427 0 l 1,29,-1
 2 0 l 1,30,-1
 18 75 l 1,0,-1
EndSplineSet
Substitution2: "'sups' Superscript lookup 1 subtable" uni00B2
EndChar

StartChar: three
Encoding: 51 51 23
Width: 559
GlyphClass: 2
Flags: W
LayerCount: 2
Fore
SplineSet
85.5 27.5 m 128,-1,1
 35 65 35 65 35 132 c 0,2,3
 35 159 35 159 40 180 c 1,4,-1
 129 180 l 1,5,6
 126 167 126 167 126 155 c 0,7,8
 126 71 126 71 236 71 c 0,9,10
 298 71 298 71 337.5 100.5 c 128,-1,11
 377 130 377 130 388 184 c 0,12,13
 395 219 395 219 395 236 c 0,14,15
 395 325 395 325 284 325 c 2,16,-1
 239 325 l 1,17,-1
 256 407 l 1,18,-1
 296 407 l 2,19,20
 359 407 359 407 397 434.5 c 128,-1,21
 435 462 435 462 445 513 c 0,22,23
 450 539 450 539 451 553 c 0,24,25
 451 593 451 593 423.5 614.5 c 128,-1,26
 396 636 396 636 345 636 c 0,27,28
 285 636 285 636 252 608.5 c 128,-1,29
 219 581 219 581 208 523 c 1,30,-1
 120 523 l 1,31,32
 135 618 135 618 196.5 667.5 c 128,-1,33
 258 717 258 717 358 717 c 0,34,35
 446 717 446 717 496.5 678 c 128,-1,36
 547 639 547 639 547 571 c 0,37,38
 547 552 547 552 539 516 c 0,39,40
 527 463 527 463 492.5 426 c 128,-1,41
 458 389 458 389 407 374 c 1,42,43
 447 360 447 360 467.5 327.5 c 128,-1,44
 488 295 488 295 488 252 c 0,45,46
 488 221 488 221 480 183 c 0,47,48
 462 93 462 93 395 41.5 c 128,-1,49
 328 -10 328 -10 226 -10 c 0,50,0
 136 -10 136 -10 85.5 27.5 c 128,-1,1
EndSplineSet
Substitution2: "'sups' Superscript lookup 1 subtable" uni00B3
EndChar

StartChar: four
Encoding: 52 52 24
Width: 572
GlyphClass: 2
Flags: W
LayerCount: 2
Fore
SplineSet
502 130 m 1,0,-1
 421 130 l 1,1,-1
 393 0 l 1,2,-1
 300 0 l 1,3,-1
 328 130 l 1,4,-1
 15 130 l 1,5,-1
 34 213 l 1,6,-1
 374 707 l 1,7,-1
 477 707 l 1,8,-1
 135 213 l 1,9,-1
 345 213 l 1,10,-1
 385 397 l 1,11,-1
 477 397 l 1,12,-1
 438 213 l 1,13,-1
 519 213 l 1,14,-1
 502 130 l 1,0,-1
EndSplineSet
EndChar

StartChar: five
Encoding: 53 53 25
Width: 546
GlyphClass: 2
Flags: W
LayerCount: 2
Fore
SplineSet
87.5 26.5 m 128,-1,1
 39 63 39 63 39 130 c 0,2,3
 39 152 39 152 43 172 c 1,4,-1
 132 172 l 1,5,-1
 131 154 l 2,6,7
 131 113 131 113 157.5 92 c 128,-1,8
 184 71 184 71 233 71 c 0,9,10
 353 71 353 71 379 201 c 2,11,-1
 387 240 l 2,12,13
 392 262 392 262 392 290 c 0,14,15
 392 336 392 336 366.5 360 c 128,-1,16
 341 384 341 384 292 384 c 0,17,18
 251 384 251 384 219 365.5 c 128,-1,19
 187 347 187 347 169 314 c 1,20,-1
 84 314 l 1,21,-1
 167 707 l 1,22,-1
 553 707 l 1,23,-1
 536 624 l 1,24,-1
 232 624 l 1,25,-1
 187 415 l 1,26,27
 209 437 209 437 244 450 c 128,-1,28
 279 463 279 463 321 463 c 0,29,30
 401 463 401 463 444 421 c 128,-1,31
 487 379 487 379 487 302 c 0,32,33
 487 271 487 271 480 240 c 2,34,-1
 471 196 l 2,35,36
 451 95 451 95 387.5 42.5 c 128,-1,37
 324 -10 324 -10 224 -10 c 0,38,0
 136 -10 136 -10 87.5 26.5 c 128,-1,1
EndSplineSet
EndChar

StartChar: six
Encoding: 54 54 26
Width: 562
GlyphClass: 2
Flags: W
LayerCount: 2
Fore
SplineSet
90 34 m 128,-1,1
 39 78 39 78 39 156 c 0,2,3
 39 186 39 186 48 225 c 0,4,5
 65 310 65 310 137 397 c 2,6,-1
 382 707 l 1,7,-1
 486 707 l 1,8,-1
 247 403 l 1,9,10
 263 412 263 412 286.5 418 c 128,-1,11
 310 424 310 424 335 424 c 0,12,13
 412 424 412 424 457 381 c 128,-1,14
 502 338 502 338 502 263 c 0,15,16
 502 243 502 243 493 195 c 0,17,18
 473 98 473 98 403.5 44 c 128,-1,19
 334 -10 334 -10 234 -10 c 0,20,0
 141 -10 141 -10 90 34 c 128,-1,1
346 103 m 128,-1,22
 386 135 386 135 399 194 c 0,23,24
 401 203 401 203 404.5 218.5 c 128,-1,25
 408 234 408 234 408 246 c 0,26,27
 408 291 408 291 377 317 c 128,-1,28
 346 343 346 343 293 343 c 0,29,30
 235 343 235 343 194 310.5 c 128,-1,31
 153 278 153 278 140 220 c 0,32,33
 133 186 133 186 133 169 c 0,34,35
 133 123 133 123 163.5 97 c 128,-1,36
 194 71 194 71 247 71 c 0,37,21
 306 71 306 71 346 103 c 128,-1,22
EndSplineSet
EndChar

StartChar: seven
Encoding: 55 55 27
Width: 496
GlyphClass: 2
Flags: W
LayerCount: 2
Fore
SplineSet
554 707 m 1,0,-1
 537 624 l 1,1,-1
 143 0 l 1,2,-1
 46 0 l 1,3,-1
 441 624 l 1,4,-1
 115 624 l 1,5,-1
 132 707 l 1,6,-1
 554 707 l 1,0,-1
EndSplineSet
EndChar

StartChar: eight
Encoding: 56 56 28
Width: 581
GlyphClass: 2
Flags: W
LayerCount: 2
Fore
SplineSet
99.5 35 m 128,-1,1
 45 80 45 80 45 156 c 0,2,3
 45 182 45 182 52 217 c 0,4,5
 64 274 64 274 102.5 315 c 128,-1,6
 141 356 141 356 199 375 c 1,7,8
 130 413 130 413 130 490 c 0,9,10
 130 505 130 505 132.5 520.5 c 128,-1,11
 135 536 135 536 136 541 c 0,12,13
 152 621 152 621 216.5 669 c 128,-1,14
 281 717 281 717 373 717 c 0,15,16
 461 717 461 717 512.5 674.5 c 128,-1,17
 564 632 564 632 564 563 c 0,18,19
 564 540 564 540 557 509 c 0,20,21
 548 461 548 461 515 424 c 128,-1,22
 482 387 482 387 431 370 c 1,23,24
 511 331 511 331 511 239 c 0,25,26
 511 222 511 222 503 182 c 0,27,28
 483 92 483 92 413.5 41 c 128,-1,29
 344 -10 344 -10 247 -10 c 0,30,0
 154 -10 154 -10 99.5 35 c 128,-1,1
418.5 437.5 m 128,-1,32
 455 464 455 464 465 511 c 0,33,34
 471 544 471 544 471 552 c 0,35,36
 471 591 471 591 442.5 613.5 c 128,-1,37
 414 636 414 636 362 636 c 0,38,39
 310 636 310 636 274 610 c 128,-1,40
 238 584 238 584 227 538 c 0,41,42
 222 512 222 512 222 496 c 0,43,44
 222 457 222 457 250.5 434 c 128,-1,45
 279 411 279 411 329 411 c 0,46,31
 382 411 382 411 418.5 437.5 c 128,-1,32
356.5 101 m 128,-1,48
 397 131 397 131 411 188 c 0,49,50
 418 216 418 216 418 233 c 0,51,52
 418 278 418 278 387.5 304.5 c 128,-1,53
 357 331 357 331 301 331 c 0,54,55
 241 331 241 331 199 300 c 128,-1,56
 157 269 157 269 144 215 c 0,57,58
 138 186 138 186 138 168 c 0,59,60
 138 123 138 123 169 97 c 128,-1,61
 200 71 200 71 257 71 c 0,62,47
 316 71 316 71 356.5 101 c 128,-1,48
EndSplineSet
EndChar

StartChar: nine
Encoding: 57 57 29
Width: 562
GlyphClass: 2
Flags: W
LayerCount: 2
Fore
SplineSet
354 303 m 1,0,1
 337 294 337 294 313.5 288.5 c 128,-1,2
 290 283 290 283 265 283 c 0,3,4
 187 283 187 283 143 326.5 c 128,-1,5
 99 370 99 370 99 444 c 0,6,7
 99 468 99 468 109 513 c 0,8,9
 128 610 128 610 197 663.5 c 128,-1,10
 266 717 266 717 366 717 c 0,11,12
 459 717 459 717 511 672.5 c 128,-1,13
 563 628 563 628 563 550 c 0,14,15
 563 538 563 538 560.5 521 c 128,-1,16
 558 504 558 504 553 480 c 0,17,18
 545 437 545 437 523 395.5 c 128,-1,19
 501 354 501 354 464 309 c 2,20,-1
 219 0 l 1,21,-1
 115 0 l 1,22,-1
 354 303 l 1,0,1
408 396 m 128,-1,24
 449 428 449 428 462 485 c 0,25,26
 469 522 469 522 469 539 c 0,27,28
 469 585 469 585 439 610.5 c 128,-1,29
 409 636 409 636 354 636 c 0,30,31
 295 636 295 636 254.5 603 c 128,-1,32
 214 570 214 570 202 512 c 0,33,34
 194 476 194 476 194 460 c 0,35,36
 194 415 194 415 224 389.5 c 128,-1,37
 254 364 254 364 307 364 c 0,38,23
 367 364 367 364 408 396 c 128,-1,24
EndSplineSet
EndChar

StartChar: less
Encoding: 60 60 32
Width: 527
GlyphClass: 2
Flags: W
LayerCount: 2
Fore
SplineSet
46 246 m 1,0,-1
 46 319 l 1,1,-1
 465 487 l 1,2,-1
 465 401 l 1,3,-1
 161 282 l 1,4,-1
 465 163 l 1,5,-1
 465 77 l 1,6,-1
 46 246 l 1,0,-1
EndSplineSet
Substitution2: "'rtla' Right to Left Alternates lookup 0 subtable" greater
EndChar

StartChar: equal
Encoding: 61 61 33
Width: 527
GlyphClass: 2
Flags: W
LayerCount: 2
Fore
SplineSet
58 425 m 1,0,-1
 476 425 l 1,1,-1
 476 342 l 1,2,-1
 58 342 l 1,3,-1
 58 425 l 1,0,-1
58 223 m 1,4,-1
 476 223 l 1,5,-1
 476 140 l 1,6,-1
 58 140 l 1,7,-1
 58 223 l 1,4,-1
EndSplineSet
EndChar

StartChar: greater
Encoding: 62 62 34
Width: 527
GlyphClass: 2
Flags: W
LayerCount: 2
Fore
SplineSet
72 163 m 1,0,-1
 375 282 l 1,1,-1
 72 401 l 1,2,-1
 72 487 l 1,3,-1
 489 319 l 1,4,-1
 489 246 l 1,5,-1
 72 77 l 1,6,-1
 72 163 l 1,0,-1
EndSplineSet
Substitution2: "'rtla' Right to Left Alternates lookup 0 subtable" less
EndChar

StartChar: question
Encoding: 63 63 35
Width: 494
GlyphClass: 2
Flags: W
LayerCount: 2
Fore
SplineSet
189 242 m 2,0,1
 198 287 198 287 215 314 c 128,-1,2
 232 341 232 341 271 373 c 2,3,-1
 339 432 l 2,4,5
 375 462 375 462 392 483 c 128,-1,6
 409 504 409 504 415 530 c 0,7,8
 420 545 420 545 420 559 c 0,9,10
 420 595 420 595 393.5 615 c 128,-1,11
 367 635 367 635 317 635 c 0,12,13
 203 635 203 635 182 530 c 1,14,-1
 92 530 l 1,15,16
 133 716 133 716 333 717 c 0,17,18
 417 717 417 717 464 678.5 c 128,-1,19
 511 640 511 640 511 571 c 0,20,21
 511 548 511 548 507 531 c 0,22,23
 500 493 500 493 479 462 c 128,-1,24
 458 431 458 431 419 398 c 2,25,-1
 337 327 l 2,26,27
 309 303 309 303 297.5 284.5 c 128,-1,28
 286 266 286 266 280 234 c 2,29,-1
 268 187 l 1,30,-1
 178 187 l 1,31,-1
 189 242 l 2,0,1
154 105 m 1,32,-1
 258 105 l 1,33,-1
 236 0 l 1,34,-1
 132 0 l 1,35,-1
 154 105 l 1,32,-1
EndSplineSet
EndChar

StartChar: at
Encoding: 64 64 36
Width: 891
GlyphClass: 2
Flags: W
LayerCount: 2
Fore
SplineSet
199.5 -97 m 128,-1,1
 125 -61 125 -61 84.5 6 c 128,-1,2
 44 73 44 73 44 164 c 0,3,4
 44 207 44 207 54 254 c 2,5,-1
 69 325 l 2,6,7
 108 507 108 507 225.5 608 c 128,-1,8
 343 709 343 709 520 709 c 0,9,10
 621 709 621 709 698.5 672 c 128,-1,11
 776 635 776 635 818 568 c 128,-1,12
 860 501 860 501 860 412 c 0,13,14
 860 373 860 373 851 328 c 2,15,-1
 836 258 l 2,16,17
 816 159 816 159 761 107.5 c 128,-1,18
 706 56 706 56 635 56 c 0,19,20
 592 56 592 56 564.5 75 c 128,-1,21
 537 94 537 94 526 128 c 1,22,23
 504 93 504 93 469 74.5 c 128,-1,24
 434 56 434 56 389 56 c 0,25,26
 327 56 327 56 293.5 90 c 128,-1,27
 260 124 260 124 260 183 c 0,28,29
 260 210 260 210 266 242 c 2,30,-1
 285 327 l 2,31,32
 324 513 324 513 468 513 c 0,33,34
 544 513 544 513 574 458 c 1,35,-1
 583 503 l 1,36,-1
 664 503 l 1,37,-1
 601 208 l 2,38,39
 598 192 598 192 598 180 c 0,40,41
 598 152 598 152 612 139 c 128,-1,42
 626 126 626 126 649 126 c 0,43,44
 685 126 685 126 709.5 156 c 128,-1,45
 734 186 734 186 750 257 c 2,46,-1
 765 327 l 2,47,48
 775 373 775 373 775 413 c 0,49,50
 775 515 775 515 708 574 c 128,-1,51
 641 633 641 633 517 633 c 0,52,53
 370 633 370 633 278 554.5 c 128,-1,54
 186 476 186 476 155 327 c 2,55,-1
 140 257 l 2,56,57
 130 212 130 212 130 170 c 0,58,59
 130 65 130 65 195.5 4.5 c 128,-1,60
 261 -56 261 -56 382 -56 c 0,61,62
 447 -56 447 -56 500.5 -43.5 c 128,-1,63
 554 -31 554 -31 610 -4 c 1,64,-1
 635 -71 l 1,65,66
 572 -104 572 -104 509.5 -118.5 c 128,-1,67
 447 -133 447 -133 375 -133 c 0,68,0
 274 -133 274 -133 199.5 -97 c 128,-1,1
486.5 157 m 128,-1,70
 513 187 513 187 525 243 c 2,71,-1
 544 328 l 2,72,73
 549 348 549 348 549 371 c 0,74,75
 549 443 549 443 481 442 c 0,76,77
 391 442 391 442 368 326 c 2,78,-1
 350 248 l 2,79,80
 345 217 345 217 345 200 c 0,81,82
 345 127 345 127 414 127 c 0,83,69
 460 127 460 127 486.5 157 c 128,-1,70
EndSplineSet
EndChar

StartChar: A
Encoding: 65 65 37
Width: 671
GlyphClass: 2
Flags: W
LayerCount: 2
Fore
SplineSet
486 160 m 1,0,-1
 146 160 l 1,1,-1
 50 0 l 1,2,-1
 -51 0 l 1,3,-1
 391 707 l 1,4,-1
 469 707 l 1,5,-1
 611 0 l 1,6,-1
 515 0 l 1,7,-1
 486 160 l 1,0,-1
472 239 m 1,8,-1
 408 592 l 1,9,-1
 195 239 l 1,10,-1
 472 239 l 1,8,-1
EndSplineSet
EndChar

StartChar: B
Encoding: 66 66 38
Width: 688
GlyphClass: 2
Flags: W
LayerCount: 2
Fore
SplineSet
630 434.5 m 128,-1,1
 589 383 589 383 521 364 c 1,2,3
 567 349 567 349 590.5 314 c 128,-1,4
 614 279 614 279 614 230 c 0,5,6
 614 158 614 158 579 106.5 c 128,-1,7
 544 55 544 55 480 27.5 c 128,-1,8
 416 0 416 0 332 0 c 2,9,-1
 19 0 l 1,10,-1
 170 707 l 1,11,-1
 468 707 l 2,12,13
 566 707 566 707 618.5 667 c 128,-1,14
 671 627 671 627 671 554 c 0,15,0
 671 486 671 486 630 434.5 c 128,-1,1
526.5 437 m 128,-1,17
 575 473 575 473 575 538 c 0,18,19
 575 583 575 583 546 604 c 128,-1,20
 517 625 517 625 458 625 c 2,21,-1
 246 625 l 1,22,-1
 199 401 l 1,23,-1
 397 401 l 2,24,16
 478 401 478 401 526.5 437 c 128,-1,17
472.5 120.5 m 128,-1,26
 521 159 521 159 521 226 c 0,27,28
 521 319 521 319 394 319 c 2,29,-1
 180 319 l 1,30,-1
 130 82 l 1,31,-1
 337 82 l 2,32,25
 424 82 424 82 472.5 120.5 c 128,-1,26
EndSplineSet
EndChar

StartChar: C
Encoding: 67 67 39
Width: 690
GlyphClass: 2
Flags: W
LayerCount: 2
Fore
SplineSet
130 47 m 128,-1,1
 61 104 61 104 61 214 c 0,2,3
 61 255 61 255 71 302 c 2,4,-1
 96 420 l 2,5,6
 128 574 128 574 211.5 646 c 128,-1,7
 295 718 295 718 430 718 c 0,8,9
 547 718 547 718 612 665.5 c 128,-1,10
 677 613 677 613 677 523 c 0,11,12
 677 498 677 498 675 485 c 1,13,-1
 582 485 l 1,14,15
 583 495 583 495 583 510 c 0,16,17
 583 569 583 569 542 602 c 128,-1,18
 501 635 501 635 423 635 c 0,19,20
 326 635 326 635 269 582.5 c 128,-1,21
 212 530 212 530 187 414 c 2,22,-1
 163 299 l 2,23,24
 154 258 154 258 154 224 c 0,25,26
 154 149 154 149 198.5 111.5 c 128,-1,27
 243 74 243 74 326 74 c 0,28,29
 407 74 407 74 459 111 c 128,-1,30
 511 148 511 148 527 222 c 1,31,-1
 618 222 l 1,32,33
 592 110 592 110 514 50 c 128,-1,34
 436 -10 436 -10 317 -10 c 256,35,0
 199 -10 199 -10 130 47 c 128,-1,1
EndSplineSet
EndChar

StartChar: D
Encoding: 68 68 40
Width: 692
GlyphClass: 2
Flags: W
LayerCount: 2
Fore
SplineSet
170 707 m 1,0,-1
 420 707 l 2,1,2
 539 707 539 707 605 652.5 c 128,-1,3
 671 598 671 598 671 492 c 0,4,5
 671 451 671 451 659 397 c 2,6,-1
 638 294 l 2,7,8
 605 141 605 141 521 70.5 c 128,-1,9
 437 0 437 0 300 0 c 2,10,-1
 19 0 l 1,11,-1
 170 707 l 1,0,-1
309 83 m 2,12,13
 407 83 407 83 464 133 c 128,-1,14
 521 183 521 183 545 297 c 2,15,-1
 566 397 l 2,16,17
 576 448 576 448 577 480 c 0,18,19
 577 553 577 553 535 588.5 c 128,-1,20
 493 624 493 624 408 624 c 2,21,-1
 246 624 l 1,22,-1
 130 83 l 1,23,-1
 309 83 l 2,12,13
EndSplineSet
EndChar

StartChar: E
Encoding: 69 69 41
Width: 618
GlyphClass: 2
Flags: W
LayerCount: 2
Fore
SplineSet
246 624 m 1,0,-1
 198 399 l 1,1,-1
 540 399 l 1,2,-1
 522 317 l 1,3,-1
 180 317 l 1,4,-1
 130 83 l 1,5,-1
 528 83 l 1,6,-1
 510 0 l 1,7,-1
 19 0 l 1,8,-1
 170 707 l 1,9,-1
 660 707 l 1,10,-1
 643 624 l 1,11,-1
 246 624 l 1,0,-1
EndSplineSet
EndChar

StartChar: F
Encoding: 70 70 42
Width: 603
GlyphClass: 2
Flags: W
LayerCount: 2
Fore
SplineSet
246 624 m 1,0,-1
 198 396 l 1,1,-1
 539 396 l 1,2,-1
 521 314 l 1,3,-1
 180 314 l 1,4,-1
 113 0 l 1,5,-1
 19 0 l 1,6,-1
 170 707 l 1,7,-1
 660 707 l 1,8,-1
 643 624 l 1,9,-1
 246 624 l 1,0,-1
EndSplineSet
EndChar

StartChar: G
Encoding: 71 71 43
Width: 689
GlyphClass: 2
Flags: W
LayerCount: 2
Fore
SplineSet
130 47 m 128,-1,1
 61 104 61 104 61 214 c 0,2,3
 61 255 61 255 71 302 c 2,4,-1
 96 420 l 2,5,6
 128 574 128 574 211.5 646 c 128,-1,7
 295 718 295 718 430 718 c 0,8,9
 546 718 546 718 611 666 c 128,-1,10
 676 614 676 614 676 524 c 0,11,12
 676 515 676 515 674 486 c 1,13,-1
 582 486 l 1,14,-1
 582 512 l 2,15,16
 582 570 582 570 541.5 602.5 c 128,-1,17
 501 635 501 635 424 635 c 0,18,19
 327 635 327 635 270 582.5 c 128,-1,20
 213 530 213 530 187 414 c 2,21,-1
 163 299 l 2,22,23
 154 258 154 258 154 222 c 0,24,25
 154 148 154 148 197.5 111 c 128,-1,26
 241 74 241 74 323 74 c 0,27,28
 406 74 406 74 459 113.5 c 128,-1,29
 512 153 512 153 529 234 c 2,30,-1
 541 288 l 1,31,-1
 352 288 l 1,32,-1
 370 367 l 1,33,-1
 649 367 l 1,34,-1
 624 241 l 2,35,36
 597 114 597 114 517.5 52 c 128,-1,37
 438 -10 438 -10 317 -10 c 0,38,0
 199 -10 199 -10 130 47 c 128,-1,1
EndSplineSet
EndChar

StartChar: H
Encoding: 72 72 44
Width: 699
GlyphClass: 2
Flags: W
LayerCount: 2
Fore
SplineSet
719 707 m 1,0,-1
 568 0 l 1,1,-1
 476 0 l 1,2,-1
 544 319 l 1,3,-1
 180 319 l 1,4,-1
 113 0 l 1,5,-1
 19 0 l 1,6,-1
 170 707 l 1,7,-1
 263 707 l 1,8,-1
 199 401 l 1,9,-1
 561 401 l 1,10,-1
 626 707 l 1,11,-1
 719 707 l 1,0,-1
EndSplineSet
EndChar

StartChar: I
Encoding: 73 73 45
Width: 259
GlyphClass: 2
Flags: W
LayerCount: 2
Fore
SplineSet
177 707 m 1,0,-1
 270 707 l 1,1,-1
 120 0 l 1,2,-1
 28 0 l 1,3,-1
 177 707 l 1,0,-1
EndSplineSet
EndChar

StartChar: J
Encoding: 74 74 46
Width: 355
GlyphClass: 2
Flags: W
LayerCount: 2
Fore
SplineSet
-7 83 m 1,0,-1
 56 83 l 2,1,2
 103 83 103 83 126.5 103 c 128,-1,3
 150 123 150 123 161 171 c 2,4,-1
 273 707 l 1,5,-1
 367 707 l 1,6,-1
 250 158 l 2,7,8
 234 78 234 78 186 39 c 128,-1,9
 138 0 138 0 59 0 c 2,10,-1
 -26 0 l 1,11,-1
 -7 83 l 1,0,-1
EndSplineSet
EndChar

StartChar: K
Encoding: 75 75 47
Width: 680
GlyphClass: 2
Flags: W
LayerCount: 2
Fore
SplineSet
416 422 m 1,0,-1
 617 0 l 1,1,-1
 512 0 l 1,2,-1
 347 360 l 1,3,-1
 154 190 l 1,4,-1
 113 0 l 1,5,-1
 19 0 l 1,6,-1
 170 707 l 1,7,-1
 263 707 l 1,8,-1
 180 317 l 1,9,-1
 615 707 l 1,10,-1
 740 707 l 1,11,-1
 416 422 l 1,0,-1
EndSplineSet
EndChar

StartChar: L
Encoding: 76 76 48
Width: 592
GlyphClass: 2
Flags: W
LayerCount: 2
Fore
SplineSet
170 707 m 1,0,-1
 263 707 l 1,1,-1
 130 83 l 1,2,-1
 524 83 l 1,3,-1
 507 0 l 1,4,-1
 20 0 l 1,5,-1
 170 707 l 1,0,-1
EndSplineSet
EndChar

StartChar: M
Encoding: 77 77 49
Width: 841
GlyphClass: 2
Flags: W
LayerCount: 2
Fore
SplineSet
711 0 m 1,0,-1
 617 0 l 1,1,-1
 731 535 l 1,2,-1
 433 139 l 1,3,-1
 366 139 l 1,4,-1
 227 538 l 1,5,-1
 113 0 l 1,6,-1
 19 0 l 1,7,-1
 170 707 l 1,8,-1
 263 707 l 1,9,-1
 417 248 l 1,10,-1
 758 707 l 1,11,-1
 861 707 l 1,12,-1
 711 0 l 1,0,-1
EndSplineSet
EndChar

StartChar: N
Encoding: 78 78 50
Width: 735
GlyphClass: 2
Flags: W
LayerCount: 2
Fore
SplineSet
755 707 m 1,0,-1
 604 0 l 1,1,-1
 512 0 l 1,2,-1
 230 554 l 1,3,-1
 113 0 l 1,4,-1
 19 0 l 1,5,-1
 170 707 l 1,6,-1
 263 707 l 1,7,-1
 545 152 l 1,8,-1
 663 707 l 1,9,-1
 755 707 l 1,0,-1
EndSplineSet
EndChar

StartChar: O
Encoding: 79 79 51
Width: 698
GlyphClass: 2
Flags: W
LayerCount: 2
Fore
SplineSet
129 47 m 128,-1,1
 61 104 61 104 61 213 c 0,2,3
 61 255 61 255 71 302 c 2,4,-1
 96 420 l 2,5,6
 128 574 128 574 210.5 646 c 128,-1,7
 293 718 293 718 425 718 c 0,8,9
 541 718 541 718 609 660.5 c 128,-1,10
 677 603 677 603 677 495 c 0,11,12
 677 455 677 455 668 406 c 2,13,-1
 643 288 l 2,14,15
 610 135 610 135 527.5 62.5 c 128,-1,16
 445 -10 445 -10 314 -10 c 0,17,0
 197 -10 197 -10 129 47 c 128,-1,1
469.5 125.5 m 128,-1,19
 525 177 525 177 550 290 c 2,20,-1
 574 403 l 2,21,22
 583 448 583 448 584 482 c 0,23,24
 584 558 584 558 541.5 596.5 c 128,-1,25
 499 635 499 635 420 635 c 0,26,27
 325 635 325 635 269 582.5 c 128,-1,28
 213 530 213 530 187 414 c 2,29,-1
 163 299 l 2,30,31
 154 258 154 258 154 223 c 0,32,33
 154 148 154 148 197 111 c 128,-1,34
 240 74 240 74 321 74 c 0,35,18
 414 74 414 74 469.5 125.5 c 128,-1,19
EndSplineSet
EndChar

StartChar: P
Encoding: 80 80 52
Width: 651
GlyphClass: 2
Flags: W
LayerCount: 2
Fore
SplineSet
620 661.5 m 128,-1,1
 673 618 673 618 673 532 c 0,2,3
 673 457 673 457 638 401 c 128,-1,4
 603 345 603 345 539.5 314 c 128,-1,5
 476 283 476 283 391 283 c 2,6,-1
 173 283 l 1,7,-1
 113 0 l 1,8,-1
 19 0 l 1,9,-1
 170 705 l 1,10,-1
 466 705 l 2,11,0
 567 705 567 705 620 661.5 c 128,-1,1
530 405.5 m 128,-1,13
 580 446 580 446 580 521 c 0,14,15
 580 573 580 573 547.5 597.5 c 128,-1,16
 515 622 515 622 450 622 c 2,17,-1
 245 622 l 1,18,-1
 190 365 l 1,19,-1
 393 365 l 2,20,12
 480 365 480 365 530 405.5 c 128,-1,13
EndSplineSet
EndChar

StartChar: Q
Encoding: 81 81 53
Width: 698
GlyphClass: 2
Flags: W
LayerCount: 2
Fore
SplineSet
609 660.5 m 128,-1,1
 677 603 677 603 677 495 c 0,2,3
 677 455 677 455 668 406 c 2,4,-1
 643 288 l 2,5,6
 603 97 603 97 478 27 c 1,7,-1
 527 -121 l 1,8,-1
 445 -156 l 1,9,-1
 395 -2 l 1,10,11
 361 -10 361 -10 314 -10 c 0,12,13
 196 -10 196 -10 128.5 47 c 128,-1,14
 61 104 61 104 61 213 c 0,15,16
 61 255 61 255 71 302 c 2,17,-1
 96 420 l 2,18,19
 128 574 128 574 210.5 646 c 128,-1,20
 293 718 293 718 425 718 c 0,21,0
 541 718 541 718 609 660.5 c 128,-1,1
584 482 m 0,23,24
 584 558 584 558 541.5 596.5 c 128,-1,25
 499 635 499 635 420 635 c 0,26,27
 325 635 325 635 269 582.5 c 128,-1,28
 213 530 213 530 187 414 c 2,29,-1
 163 299 l 2,30,31
 154 258 154 258 154 223 c 0,32,33
 154 148 154 148 197 111 c 128,-1,34
 240 74 240 74 321 74 c 0,35,36
 414 74 414 74 469.5 125.5 c 128,-1,37
 525 177 525 177 550 290 c 2,38,-1
 574 403 l 2,39,22
 584 448 584 448 584 482 c 0,23,24
EndSplineSet
EndChar

StartChar: R
Encoding: 82 82 54
Width: 677
GlyphClass: 2
Flags: W
LayerCount: 2
Fore
SplineSet
619 386.5 m 128,-1,1
 563 323 563 323 465 304 c 1,2,-1
 584 0 l 1,3,-1
 480 0 l 1,4,-1
 372 298 l 1,5,-1
 176 298 l 1,6,-1
 113 0 l 1,7,-1
 19 0 l 1,8,-1
 170 707 l 1,9,-1
 470 707 l 2,10,11
 569 707 569 707 622 665.5 c 128,-1,12
 675 624 675 624 675 541 c 0,13,0
 675 450 675 450 619 386.5 c 128,-1,1
532 418.5 m 128,-1,15
 581 458 581 458 581 527 c 0,16,17
 581 576 581 576 549.5 600 c 128,-1,18
 518 624 518 624 455 624 c 2,19,-1
 246 624 l 1,20,-1
 194 379 l 1,21,-1
 399 379 l 2,22,14
 483 379 483 379 532 418.5 c 128,-1,15
EndSplineSet
EndChar

StartChar: S
Encoding: 83 83 55
Width: 624
GlyphClass: 2
Flags: W
LayerCount: 2
Fore
SplineSet
82 39.5 m 128,-1,1
 16 85 16 85 16 170 c 0,2,3
 16 180 16 180 18 205 c 1,4,-1
 109 205 l 1,5,6
 108 198 108 198 108 185 c 0,7,8
 108 74 108 74 269 75 c 0,9,10
 366 75 366 75 421.5 112.5 c 128,-1,11
 477 150 477 150 477 218 c 0,12,13
 477 261 477 261 447.5 284 c 128,-1,14
 418 307 418 307 356 315 c 2,15,-1
 280 326 l 2,16,17
 186 337 186 337 140.5 377 c 128,-1,18
 95 417 95 417 95 487 c 0,19,20
 95 595 95 595 174 655.5 c 128,-1,21
 253 716 253 716 384 716 c 0,22,23
 490 716 490 716 554 672 c 128,-1,24
 618 628 618 628 618 543 c 0,25,26
 618 525 618 525 617 515 c 1,27,-1
 526 515 l 1,28,29
 528 531 528 531 528 538 c 0,30,31
 528 589 528 589 489 613 c 128,-1,32
 450 637 450 637 379 637 c 0,33,34
 290 637 290 637 238 600.5 c 128,-1,35
 186 564 186 564 186 501 c 0,36,37
 186 460 186 460 215.5 437.5 c 128,-1,38
 245 415 245 415 307 408 c 2,39,-1
 389 396 l 2,40,41
 479 385 479 385 524 344.5 c 128,-1,42
 569 304 569 304 569 231 c 0,43,44
 569 117 569 117 486 55.5 c 128,-1,45
 403 -6 403 -6 263 -6 c 0,46,0
 148 -6 148 -6 82 39.5 c 128,-1,1
EndSplineSet
EndChar

StartChar: T
Encoding: 84 84 56
Width: 559
GlyphClass: 2
Flags: W
LayerCount: 2
Fore
SplineSet
629 624 m 1,0,-1
 402 624 l 1,1,-1
 270 0 l 1,2,-1
 178 0 l 1,3,-1
 310 624 l 1,4,-1
 85 624 l 1,5,-1
 102 707 l 1,6,-1
 646 707 l 1,7,-1
 629 624 l 1,0,-1
EndSplineSet
EndChar

StartChar: U
Encoding: 85 85 57
Width: 706
GlyphClass: 2
Flags: W
LayerCount: 2
Fore
SplineSet
133.5 47.5 m 128,-1,1
 68 101 68 101 68 197 c 0,2,3
 68 222 68 222 75 259 c 2,4,-1
 170 707 l 1,5,-1
 263 707 l 1,6,-1
 168 258 l 2,7,8
 162 230 162 230 162 206 c 0,9,10
 162 143 162 143 202.5 109.5 c 128,-1,11
 243 76 243 76 321 76 c 0,12,13
 411 76 411 76 464 120.5 c 128,-1,14
 517 165 517 165 537 254 c 2,15,-1
 633 707 l 1,16,-1
 726 707 l 1,17,-1
 628 246 l 2,18,19
 602 126 602 126 520.5 60 c 128,-1,20
 439 -6 439 -6 312 -6 c 0,21,0
 199 -6 199 -6 133.5 47.5 c 128,-1,1
EndSplineSet
EndChar

StartChar: V
Encoding: 86 86 58
Width: 609
GlyphClass: 2
Flags: W
LayerCount: 2
Fore
SplineSet
99 707 m 1,0,-1
 196 707 l 1,1,-1
 275 131 l 1,2,-1
 599 707 l 1,3,-1
 699 707 l 1,4,-1
 287 0 l 1,5,-1
 212 0 l 1,6,-1
 99 707 l 1,0,-1
EndSplineSet
EndChar

StartChar: W
Encoding: 87 87 59
Width: 924
GlyphClass: 2
Flags: W
LayerCount: 2
Fore
SplineSet
1015 707 m 1,0,-1
 664 0 l 1,1,-1
 577 0 l 1,2,-1
 535 596 l 1,3,-1
 242 0 l 1,4,-1
 155 0 l 1,5,-1
 99 707 l 1,6,-1
 189 707 l 1,7,-1
 226 132 l 1,8,-1
 498 707 l 1,9,-1
 612 707 l 1,10,-1
 649 132 l 1,11,-1
 921 707 l 1,12,-1
 1015 707 l 1,0,-1
EndSplineSet
EndChar

StartChar: X
Encoding: 88 88 60
Width: 657
GlyphClass: 2
Flags: W
LayerCount: 2
Fore
SplineSet
296 371 m 1,0,-1
 120 707 l 1,1,-1
 227 707 l 1,2,-1
 364 440 l 1,3,-1
 604 707 l 1,4,-1
 723 707 l 1,5,-1
 406 368 l 1,6,-1
 597 0 l 1,7,-1
 488 0 l 1,8,-1
 338 298 l 1,9,-1
 69 0 l 1,10,-1
 -51 0 l 1,11,-1
 296 371 l 1,0,-1
EndSplineSet
EndChar

StartChar: Y
Encoding: 89 89 61
Width: 586
GlyphClass: 2
Flags: W
LayerCount: 2
Fore
SplineSet
346 288 m 1,0,-1
 285 0 l 1,1,-1
 193 0 l 1,2,-1
 255 294 l 1,3,-1
 99 707 l 1,4,-1
 203 707 l 1,5,-1
 315 371 l 1,6,-1
 568 707 l 1,7,-1
 677 707 l 1,8,-1
 346 288 l 1,0,-1
EndSplineSet
EndChar

StartChar: Z
Encoding: 90 90 62
Width: 585
GlyphClass: 2
Flags: W
LayerCount: 2
Fore
SplineSet
618 625 m 1,0,-1
 110 83 l 1,1,-1
 510 83 l 1,2,-1
 493 0 l 1,3,-1
 -17 0 l 1,4,-1
 0 83 l 1,5,-1
 509 625 l 1,6,-1
 128 625 l 1,7,-1
 144 707 l 1,8,-1
 636 707 l 1,9,-1
 618 625 l 1,0,-1
EndSplineSet
EndChar

StartChar: bracketleft
Encoding: 91 91 63
Width: 331
GlyphClass: 2
Flags: W
LayerCount: 2
Fore
SplineSet
181 758 m 1,0,-1
 382 758 l 1,1,-1
 364 675 l 1,2,-1
 254 675 l 1,3,-1
 110 -3 l 1,4,-1
 220 -3 l 1,5,-1
 202 -86 l 1,6,-1
 1 -86 l 1,7,-1
 181 758 l 1,0,-1
EndSplineSet
Substitution2: "'rtla' Right to Left Alternates lookup 0 subtable" bracketright
EndChar

StartChar: backslash
Encoding: 92 92 64
Width: 441
GlyphClass: 2
Flags: W
LayerCount: 2
Fore
SplineSet
151 709 m 1,0,-1
 223 709 l 1,1,-1
 329 -10 l 1,2,-1
 255 -10 l 1,3,-1
 151 709 l 1,0,-1
EndSplineSet
EndChar

StartChar: bracketright
Encoding: 93 93 65
Width: 331
GlyphClass: 2
Flags: W
LayerCount: 2
Fore
SplineSet
-1 -3 m 1,0,-1
 110 -3 l 1,1,-1
 254 675 l 1,2,-1
 143 675 l 1,3,-1
 161 758 l 1,4,-1
 361 758 l 1,5,-1
 182 -86 l 1,6,-1
 -18 -86 l 1,7,-1
 -1 -3 l 1,0,-1
EndSplineSet
Substitution2: "'rtla' Right to Left Alternates lookup 0 subtable" bracketleft
EndChar

StartChar: asciicircum
Encoding: 94 94 66
Width: 527
GlyphClass: 2
Flags: W
LayerCount: 2
Fore
SplineSet
232 709 m 1,0,-1
 307 709 l 1,1,-1
 482 288 l 1,2,-1
 409 288 l 1,3,-1
 269 626 l 1,4,-1
 131 288 l 1,5,-1
 56 288 l 1,6,-1
 232 709 l 1,0,-1
EndSplineSet
EndChar

StartChar: underscore
Encoding: 95 95 67
Width: 542
GlyphClass: 2
Flags: W
LayerCount: 2
Fore
SplineSet
-66 -51 m 1,0,-1
 477 -51 l 1,1,-1
 464 -112 l 1,2,-1
 -80 -112 l 1,3,-1
 -66 -51 l 1,0,-1
EndSplineSet
EndChar

StartChar: grave
Encoding: 96 96 68
Width: 505
GlyphClass: 2
Flags: W
LayerCount: 2
Fore
SplineSet
197 721 m 1,0,-1
 305 721 l 1,1,-1
 393 591 l 1,2,-1
 315 591 l 1,3,-1
 197 721 l 1,0,-1
EndSplineSet
EndChar

StartChar: a
Encoding: 97 97 69
Width: 583
GlyphClass: 2
Flags: W
LayerCount: 2
Fore
SplineSet
93.5 38 m 128,-1,1
 44 85 44 85 44 174 c 0,2,3
 44 209 44 209 51 245 c 2,4,-1
 65 308 l 2,5,6
 89 421 89 421 152 476.5 c 128,-1,7
 215 532 215 532 309 532 c 0,8,9
 364 532 364 532 404 511 c 128,-1,10
 444 490 444 490 467 451 c 1,11,-1
 482 523 l 1,12,-1
 568 523 l 1,13,-1
 458 0 l 1,14,-1
 372 0 l 1,15,-1
 386 65 l 1,16,17
 323 -9 323 -9 224 -9 c 0,18,0
 143 -9 143 -9 93.5 38 c 128,-1,1
359 110.5 m 128,-1,20
 401 152 401 152 418 224 c 2,21,-1
 430 279 l 2,22,23
 435 304 435 304 435 333 c 0,24,25
 435 390 435 390 402 422.5 c 128,-1,26
 369 455 369 455 310 455 c 0,27,28
 250 455 250 455 209.5 419 c 128,-1,29
 169 383 169 383 152 302 c 2,30,-1
 138 244 l 2,31,32
 133 217 133 217 133 186 c 0,33,34
 133 127 133 127 165 98 c 128,-1,35
 197 69 197 69 250 69 c 0,36,19
 317 69 317 69 359 110.5 c 128,-1,20
EndSplineSet
EndChar

StartChar: b
Encoding: 98 98 70
Width: 583
GlyphClass: 2
Flags: W
LayerCount: 2
Fore
SplineSet
116 72 m 1,1,-1
 100 0 l 1,2,-1
 14 0 l 1,3,-1
 165 707 l 1,4,-1
 252 707 l 1,5,-1
 200 459 l 1,6,7
 265 534 265 534 357 534 c 0,8,9
 439 534 439 534 489.5 487 c 128,-1,10
 540 440 540 440 540 352 c 0,11,12
 540 317 540 317 532 282 c 2,13,-1
 519 218 l 2,14,15
 496 105 496 105 432.5 48 c 128,-1,16
 369 -9 369 -9 275 -9 c 0,17,0
 166 -9 166 -9 116 72 c 1,1,-1
374.5 105 m 128,-1,19
 415 141 415 141 432 222 c 2,20,-1
 445 281 l 2,21,22
 451 314 451 314 452 338 c 0,23,24
 452 397 452 397 419 426 c 128,-1,25
 386 455 386 455 333 455 c 0,26,27
 267 455 267 455 223.5 412 c 128,-1,28
 180 369 180 369 165 298 c 2,29,-1
 152 234 l 2,30,31
 147 208 147 208 146 189 c 0,32,33
 146 133 146 133 179.5 101 c 128,-1,34
 213 69 213 69 272 69 c 0,35,18
 334 69 334 69 374.5 105 c 128,-1,19
EndSplineSet
EndChar

StartChar: c
Encoding: 99 99 71
Width: 567
GlyphClass: 2
Flags: W
LayerCount: 2
Fore
SplineSet
103 37.5 m 128,-1,1
 45 84 45 84 45 179 c 0,2,3
 45 210 45 210 52 247 c 2,4,-1
 65 307 l 2,5,6
 89 420 89 420 155.5 476 c 128,-1,7
 222 532 222 532 327 532 c 0,8,9
 419 532 419 532 473.5 490.5 c 128,-1,10
 528 449 528 449 528 369 c 0,11,12
 528 354 528 354 527 343 c 1,13,-1
 441 343 l 1,14,-1
 442 358 l 1,15,16
 442 454 442 454 323 455 c 0,17,18
 254 455 254 455 211 419 c 128,-1,19
 168 383 168 383 151 300 c 2,20,-1
 138 245 l 2,21,22
 132 213 132 213 132 187 c 0,23,24
 132 68 132 68 262 69 c 0,25,26
 322 69 322 69 360 97 c 128,-1,27
 398 125 398 125 409 179 c 1,28,-1
 494 179 l 1,29,30
 481 92 481 92 418 41.5 c 128,-1,31
 355 -9 355 -9 257 -9 c 0,32,0
 161 -9 161 -9 103 37.5 c 128,-1,1
EndSplineSet
EndChar

StartChar: d
Encoding: 100 100 72
Width: 583
GlyphClass: 2
Flags: W
LayerCount: 2
Fore
SplineSet
93.5 38 m 128,-1,1
 44 85 44 85 44 174 c 0,2,3
 44 209 44 209 51 245 c 2,4,-1
 65 308 l 2,5,6
 89 421 89 421 151.5 476.5 c 128,-1,7
 214 532 214 532 307 532 c 0,8,9
 362 532 362 532 403 512 c 128,-1,10
 444 492 444 492 467 451 c 1,11,-1
 520 707 l 1,12,-1
 608 707 l 1,13,-1
 458 0 l 1,14,-1
 372 0 l 1,15,-1
 385 65 l 1,16,17
 324 -9 324 -9 224 -9 c 0,18,0
 143 -9 143 -9 93.5 38 c 128,-1,1
359 110.5 m 128,-1,20
 401 152 401 152 418 224 c 2,21,-1
 430 279 l 2,22,23
 435 304 435 304 435 333 c 0,24,25
 435 390 435 390 402 422.5 c 128,-1,26
 369 455 369 455 310 455 c 0,27,28
 250 455 250 455 209.5 419 c 128,-1,29
 169 383 169 383 152 302 c 2,30,-1
 138 244 l 2,31,32
 133 218 133 218 133 186 c 0,33,34
 133 127 133 127 165 98 c 128,-1,35
 197 69 197 69 250 69 c 0,36,19
 317 69 317 69 359 110.5 c 128,-1,20
EndSplineSet
EndChar

StartChar: e
Encoding: 101 101 73
Width: 571
GlyphClass: 2
Flags: W
LayerCount: 2
Fore
SplineSet
474 486.5 m 128,-1,1
 528 441 528 441 528 356 c 0,2,3
 528 321 528 321 521 287 c 2,4,-1
 513 242 l 1,5,-1
 139 242 l 1,6,7
 132 212 132 212 132 183 c 0,8,9
 132 123 132 123 167 95.5 c 128,-1,10
 202 68 202 68 262 68 c 0,11,12
 319 68 319 68 355.5 92.5 c 128,-1,13
 392 117 392 117 404 165 c 1,14,-1
 493 165 l 1,15,16
 476 81 476 81 414 36 c 128,-1,17
 352 -9 352 -9 257 -9 c 256,18,19
 162 -9 162 -9 103.5 38 c 128,-1,20
 45 85 45 85 45 177 c 0,21,22
 45 210 45 210 53 251 c 2,23,-1
 65 306 l 2,24,25
 88 419 88 419 155 475.5 c 128,-1,26
 222 532 222 532 326 532 c 0,27,0
 420 532 420 532 474 486.5 c 128,-1,1
444 356 m 0,29,30
 444 405 444 405 411.5 430.5 c 128,-1,31
 379 456 379 456 321 456 c 0,32,33
 255 456 255 456 211.5 420.5 c 128,-1,34
 168 385 168 385 152 305 c 1,35,-1
 438 305 l 1,36,-1
 440 318 l 2,37,28
 444 338 444 338 444 356 c 0,29,30
EndSplineSet
EndChar

StartChar: f
Encoding: 102 102 74
Width: 370
GlyphClass: 2
Flags: W
LayerCount: 2
Fore
SplineSet
304 624.5 m 128,-1,1
 282 607 282 607 273 567 c 2,2,-1
 264 523 l 1,3,-1
 390 523 l 1,4,-1
 377 458 l 1,5,-1
 250 458 l 1,6,-1
 154 0 l 1,7,-1
 67 0 l 1,8,-1
 163 458 l 1,9,-1
 88 458 l 1,10,-1
 102 523 l 1,11,-1
 177 523 l 1,12,-1
 185 563 l 2,13,14
 216 706 216 706 362 707 c 2,15,-1
 429 707 l 1,16,-1
 415 642 l 1,17,-1
 368 642 l 2,18,0
 326 642 326 642 304 624.5 c 128,-1,1
EndSplineSet
EndChar

StartChar: g
Encoding: 103 103 75
Width: 584
GlyphClass: 2
Flags: W
LayerCount: 2
Fore
SplineSet
57 -126.5 m 128,-1,1
 6 -89 6 -89 6 -16 c 1,2,-1
 92 -16 l 1,3,4
 94 -53 94 -53 124 -72 c 128,-1,5
 154 -91 154 -91 215 -91 c 0,6,7
 286 -91 286 -91 325.5 -60 c 128,-1,8
 365 -29 365 -29 379 37 c 2,9,-1
 391 95 l 1,10,11
 332 21 332 21 230 22 c 0,12,13
 148 22 148 22 99 68.5 c 128,-1,14
 50 115 50 115 50 200 c 0,15,16
 50 235 50 235 57 269 c 2,17,-1
 67 312 l 2,18,19
 89 424 89 424 152 479.5 c 128,-1,20
 215 535 215 535 308 535 c 0,21,22
 363 535 363 535 404.5 514 c 128,-1,23
 446 493 446 493 468 453 c 1,24,-1
 483 525 l 1,25,-1
 570 525 l 1,26,-1
 467 40 l 2,27,28
 447 -57 447 -57 380.5 -110.5 c 128,-1,29
 314 -164 314 -164 204 -164 c 0,30,0
 108 -164 108 -164 57 -126.5 c 128,-1,1
366.5 140 m 128,-1,32
 409 181 409 181 424 250 c 2,33,-1
 431 285 l 2,34,35
 437 309 437 309 437 338 c 0,36,37
 437 393 437 393 403.5 425 c 128,-1,38
 370 457 370 457 311 457 c 0,39,40
 251 457 251 457 210.5 422 c 128,-1,41
 170 387 170 387 153 307 c 2,42,-1
 144 268 l 2,43,44
 138 239 138 239 138 214 c 0,45,46
 138 157 138 157 171 128 c 128,-1,47
 204 99 204 99 257 99 c 0,48,31
 324 99 324 99 366.5 140 c 128,-1,32
EndSplineSet
EndChar

StartChar: h
Encoding: 104 104 76
Width: 584
GlyphClass: 2
Flags: W
LayerCount: 2
Fore
SplineSet
165 707 m 1,0,-1
 251 707 l 1,1,-1
 198 455 l 1,2,3
 264 530 264 530 369 529 c 0,4,5
 447 529 447 529 490.5 489.5 c 128,-1,6
 534 450 534 450 534 379 c 0,7,8
 534 352 534 352 525 311 c 2,9,-1
 459 0 l 1,10,-1
 372 0 l 1,11,-1
 435 299 l 2,12,13
 442 339 442 339 442 357 c 0,14,15
 442 403 442 403 414 427.5 c 128,-1,16
 386 452 386 452 335 452 c 0,17,18
 268 452 268 452 224 411 c 128,-1,19
 180 370 180 370 164 294 c 2,20,-1
 101 0 l 1,21,-1
 14 0 l 1,22,-1
 165 707 l 1,0,-1
EndSplineSet
EndChar

StartChar: i
Encoding: 105 105 77
Width: 244
GlyphClass: 2
Flags: W
LayerCount: 2
Fore
SplineSet
172 707 m 1,0,-1
 262 707 l 1,1,-1
 242 611 l 1,2,-1
 152 611 l 1,3,-1
 172 707 l 1,0,-1
136 523 m 1,4,-1
 222 523 l 1,5,-1
 112 0 l 1,6,-1
 26 0 l 1,7,-1
 136 523 l 1,4,-1
EndSplineSet
EndChar

StartChar: j
Encoding: 106 106 78
Width: 243
GlyphClass: 2
Flags: W
LayerCount: 2
Fore
SplineSet
171 712 m 1,0,-1
 261 712 l 1,1,-1
 241 616 l 1,2,-1
 151 616 l 1,3,-1
 171 712 l 1,0,-1
-123 -80 m 1,4,-1
 -76 -80 l 2,5,6
 -32 -80 -32 -80 -9 -61 c 128,-1,7
 14 -42 14 -42 24 3 c 2,8,-1
 134 523 l 1,9,-1
 221 523 l 1,10,-1
 109 -3 l 2,11,12
 92 -81 92 -81 45.5 -119 c 128,-1,13
 -1 -157 -1 -157 -80 -157 c 2,14,-1
 -139 -157 l 1,15,-1
 -123 -80 l 1,4,-1
EndSplineSet
EndChar

StartChar: k
Encoding: 107 107 79
Width: 566
GlyphClass: 2
Flags: W
LayerCount: 2
Fore
SplineSet
333 318 m 1,0,-1
 493 0 l 1,1,-1
 393 0 l 1,2,-1
 267 264 l 1,3,-1
 134 154 l 1,4,-1
 101 0 l 1,5,-1
 14 0 l 1,6,-1
 165 707 l 1,7,-1
 252 707 l 1,8,-1
 158 266 l 1,9,-1
 461 523 l 1,10,-1
 580 523 l 1,11,-1
 333 318 l 1,0,-1
EndSplineSet
EndChar

StartChar: l
Encoding: 108 108 80
Width: 309
GlyphClass: 2
Flags: W
LayerCount: 2
Fore
SplineSet
72.5 25 m 128,-1,1
 41 50 41 50 41 101 c 0,2,3
 41 126 41 126 48 159 c 2,4,-1
 165 707 l 1,5,-1
 252 707 l 1,6,-1
 136 164 l 2,7,8
 131 142 131 142 131 126 c 0,9,10
 131 100 131 100 147 89 c 128,-1,11
 163 78 163 78 199 78 c 2,12,-1
 246 78 l 1,13,-1
 230 0 l 1,14,-1
 170 0 l 2,15,0
 104 0 104 0 72.5 25 c 128,-1,1
EndSplineSet
EndChar

StartChar: m
Encoding: 109 109 81
Width: 928
GlyphClass: 2
Flags: W
LayerCount: 2
Fore
SplineSet
126 523 m 1,0,-1
 212 523 l 1,1,-1
 197 455 l 1,2,3
 230 491 230 491 273 510 c 128,-1,4
 316 529 316 529 367 529 c 0,5,6
 424 529 424 529 463 504.5 c 128,-1,7
 502 480 502 480 516 436 c 1,8,9
 559 486 559 486 606 507.5 c 128,-1,10
 653 529 653 529 711 529 c 0,11,12
 790 529 790 529 834 489.5 c 128,-1,13
 878 450 878 450 878 379 c 0,14,15
 878 352 878 352 869 311 c 2,16,-1
 802 0 l 1,17,-1
 715 0 l 1,18,-1
 779 299 l 2,19,20
 786 333 786 333 786 356 c 0,21,22
 786 402 786 402 759 427 c 128,-1,23
 732 452 732 452 684 452 c 0,24,25
 617 452 617 452 574 411.5 c 128,-1,26
 531 371 531 371 515 296 c 2,27,-1
 453 0 l 1,28,-1
 365 0 l 1,29,-1
 428 299 l 2,30,31
 436 337 436 337 436 356 c 0,32,33
 436 402 436 402 409 427 c 128,-1,34
 382 452 382 452 334 452 c 0,35,36
 269 452 269 452 225 411 c 128,-1,37
 181 370 181 370 165 294 c 2,38,-1
 102 0 l 1,39,-1
 15 0 l 1,40,-1
 126 523 l 1,0,-1
EndSplineSet
EndChar

StartChar: n
Encoding: 110 110 82
Width: 584
GlyphClass: 2
Flags: W
LayerCount: 2
Fore
SplineSet
126 523 m 1,0,-1
 212 523 l 1,1,-1
 197 455 l 1,2,3
 264 530 264 530 370 529 c 0,4,5
 448 529 448 529 491.5 489.5 c 128,-1,6
 535 450 535 450 535 379 c 0,7,8
 535 351 535 351 525 311 c 2,9,-1
 459 0 l 1,10,-1
 372 0 l 1,11,-1
 435 299 l 2,12,13
 443 337 443 337 443 357 c 0,14,15
 443 403 443 403 415.5 427.5 c 128,-1,16
 388 452 388 452 337 452 c 0,17,18
 270 452 270 452 225.5 411 c 128,-1,19
 181 370 181 370 165 294 c 2,20,-1
 102 0 l 1,21,-1
 15 0 l 1,22,-1
 126 523 l 1,0,-1
EndSplineSet
EndChar

StartChar: o
Encoding: 111 111 83
Width: 577
GlyphClass: 2
Flags: W
LayerCount: 2
Fore
SplineSet
102.5 37.5 m 128,-1,1
 45 84 45 84 45 175 c 0,2,3
 45 209 45 209 52 245 c 2,4,-1
 65 308 l 2,5,6
 89 420 89 420 155.5 476 c 128,-1,7
 222 532 222 532 325 532 c 0,8,9
 419 532 419 532 476.5 486 c 128,-1,10
 534 440 534 440 534 349 c 0,11,12
 534 318 534 318 525 280 c 2,13,-1
 512 216 l 2,14,15
 489 103 489 103 421.5 47 c 128,-1,16
 354 -9 354 -9 254 -9 c 0,17,0
 160 -9 160 -9 102.5 37.5 c 128,-1,1
368 105 m 128,-1,19
 409 141 409 141 426 224 c 2,20,-1
 438 282 l 2,21,22
 444 309 444 309 444 339 c 0,23,24
 444 399 444 399 410.5 427 c 128,-1,25
 377 455 377 455 317 455 c 0,26,27
 251 455 251 455 209.5 419 c 128,-1,28
 168 383 168 383 151 300 c 2,29,-1
 138 242 l 2,30,31
 132 210 132 210 132 185 c 0,32,33
 132 125 132 125 167 97 c 128,-1,34
 202 69 202 69 262 69 c 0,35,18
 327 69 327 69 368 105 c 128,-1,19
EndSplineSet
EndChar

StartChar: p
Encoding: 112 112 84
Width: 584
GlyphClass: 2
Flags: W
LayerCount: 2
Fore
SplineSet
126 523 m 1,0,-1
 213 523 l 1,1,-1
 199 459 l 1,2,3
 266 533 266 533 359 532 c 0,4,5
 441 532 441 532 491 485.5 c 128,-1,6
 541 439 541 439 541 351 c 0,7,8
 541 317 541 317 534 282 c 2,9,-1
 520 216 l 2,10,11
 496 104 496 104 433 47.5 c 128,-1,12
 370 -9 370 -9 276 -9 c 0,13,14
 166 -9 166 -9 118 74 c 1,15,-1
 68 -160 l 1,16,-1
 -19 -160 l 1,17,-1
 126 523 l 1,0,-1
433 222 m 2,19,-1
 445 281 l 2,20,21
 451 312 451 312 452 336 c 0,22,23
 452 395 452 395 419 425 c 128,-1,24
 386 455 386 455 334 455 c 0,25,26
 268 455 268 455 224 412 c 128,-1,27
 180 369 180 369 165 298 c 2,28,-1
 153 238 l 2,29,30
 148 216 148 216 147 190 c 0,31,32
 147 134 147 134 180.5 101.5 c 128,-1,33
 214 69 214 69 272 69 c 0,34,18
 400 68 400 68 433 222 c 2,19,-1
EndSplineSet
EndChar

StartChar: q
Encoding: 113 113 85
Width: 583
GlyphClass: 2
Flags: W
LayerCount: 2
Fore
SplineSet
384 65 m 1,0,1
 324 -9 324 -9 224 -9 c 0,2,3
 143 -9 143 -9 93.5 38 c 128,-1,4
 44 85 44 85 44 174 c 0,5,6
 44 209 44 209 51 245 c 2,7,-1
 65 308 l 2,8,9
 89 421 89 421 152 476.5 c 128,-1,10
 215 532 215 532 307 532 c 0,11,12
 363 532 363 532 404 512 c 128,-1,13
 445 492 445 492 467 451 c 1,14,-1
 482 523 l 1,15,-1
 568 523 l 1,16,-1
 424 -160 l 1,17,-1
 337 -160 l 1,18,-1
 384 65 l 1,0,1
359 110.5 m 128,-1,20
 401 152 401 152 418 224 c 2,21,-1
 430 279 l 2,22,23
 435 304 435 304 435 332 c 0,24,25
 435 389 435 389 401.5 422 c 128,-1,26
 368 455 368 455 309 455 c 0,27,28
 185 455 185 455 152 302 c 2,29,-1
 138 244 l 2,30,31
 133 218 133 218 133 186 c 0,32,33
 133 127 133 127 165 98 c 128,-1,34
 197 69 197 69 250 69 c 0,35,19
 317 69 317 69 359 110.5 c 128,-1,20
EndSplineSet
EndChar

StartChar: r
Encoding: 114 114 86
Width: 386
GlyphClass: 2
Flags: W
LayerCount: 2
Fore
SplineSet
126 523 m 1,0,-1
 212 523 l 1,1,-1
 196 452 l 1,2,3
 263 532 263 532 373 531 c 0,4,5
 399 531 399 531 419 528 c 1,6,-1
 400 443 l 1,7,8
 374 452 374 452 339 453 c 0,9,10
 273 453 273 453 227 412 c 128,-1,11
 181 371 181 371 165 296 c 2,12,-1
 102 0 l 1,13,-1
 15 0 l 1,14,-1
 126 523 l 1,0,-1
EndSplineSet
EndChar

StartChar: s
Encoding: 115 115 87
Width: 530
GlyphClass: 2
Flags: W
LayerCount: 2
Fore
SplineSet
77 35.5 m 128,-1,1
 22 77 22 77 22 159 c 1,2,-1
 103 159 l 1,3,4
 104 67 104 67 237 67 c 0,5,6
 304 67 304 67 343 91.5 c 128,-1,7
 382 116 382 116 382 160 c 0,8,9
 382 191 382 191 361 204.5 c 128,-1,10
 340 218 340 218 294 224 c 2,11,-1
 218 234 l 2,12,13
 144 242 144 242 108.5 272 c 128,-1,14
 73 302 73 302 73 357 c 0,15,16
 73 438 73 438 134 484 c 128,-1,17
 195 530 195 530 299 530 c 0,18,19
 399 530 399 530 451 489.5 c 128,-1,20
 503 449 503 449 503 373 c 1,21,-1
 421 373 l 1,22,23
 421 460 421 460 293 460 c 0,24,25
 231 460 231 460 195 435.5 c 128,-1,26
 159 411 159 411 159 370 c 0,27,28
 159 343 159 343 178.5 328.5 c 128,-1,29
 198 314 198 314 241 309 c 2,30,-1
 318 299 l 2,31,32
 396 289 396 289 432.5 258.5 c 128,-1,33
 469 228 469 228 469 171 c 0,34,35
 469 88 469 88 405.5 41 c 128,-1,36
 342 -6 342 -6 232 -6 c 0,37,0
 132 -6 132 -6 77 35.5 c 128,-1,1
EndSplineSet
EndChar

StartChar: t
Encoding: 116 116 88
Width: 400
GlyphClass: 2
Flags: W
LayerCount: 2
Fore
SplineSet
196 163 m 2,0,1
 191 141 191 141 190 122 c 0,2,3
 190 98 190 98 205 87 c 128,-1,4
 220 76 220 76 252 76 c 2,5,-1
 300 76 l 1,6,-1
 284 0 l 1,7,-1
 224 0 l 2,8,9
 163 0 163 0 131.5 26 c 128,-1,10
 100 52 100 52 100 101 c 0,11,12
 100 121 100 121 108 159 c 2,13,-1
 171 458 l 1,14,-1
 78 458 l 1,15,-1
 91 523 l 1,16,-1
 185 523 l 1,17,-1
 210 638 l 1,18,-1
 304 674 l 1,19,-1
 272 523 l 1,20,-1
 406 523 l 1,21,-1
 392 458 l 1,22,-1
 258 458 l 1,23,-1
 196 163 l 2,0,1
EndSplineSet
EndChar

StartChar: u
Encoding: 117 117 89
Width: 584
GlyphClass: 2
Flags: W
LayerCount: 2
Fore
SplineSet
105 34 m 128,-1,1
 54 76 54 76 54 154 c 0,2,3
 54 185 54 185 61 220 c 2,4,-1
 126 523 l 1,5,-1
 213 523 l 1,6,-1
 150 223 l 2,7,8
 142 184 142 184 141 165 c 0,9,10
 141 70 141 70 256 70 c 0,11,12
 326 70 326 70 363.5 104 c 128,-1,13
 401 138 401 138 417 212 c 2,14,-1
 483 523 l 1,15,-1
 570 523 l 1,16,-1
 503 207 l 2,17,18
 458 -8 458 -8 249 -8 c 0,19,0
 156 -8 156 -8 105 34 c 128,-1,1
EndSplineSet
EndChar

StartChar: v
Encoding: 118 118 90
Width: 519
GlyphClass: 2
Flags: W
LayerCount: 2
Fore
SplineSet
69 523 m 1,0,-1
 160 523 l 1,1,-1
 225 110 l 1,2,-1
 465 523 l 1,3,-1
 562 523 l 1,4,-1
 243 0 l 1,5,-1
 165 0 l 1,6,-1
 69 523 l 1,0,-1
EndSplineSet
EndChar

StartChar: w
Encoding: 119 119 91
Width: 828
GlyphClass: 2
Flags: W
LayerCount: 2
Fore
SplineSet
69 523 m 1,0,-1
 159 523 l 1,1,-1
 203 114 l 1,2,-1
 431 523 l 1,3,-1
 504 523 l 1,4,-1
 560 114 l 1,5,-1
 776 523 l 1,6,-1
 871 523 l 1,7,-1
 579 0 l 1,8,-1
 499 0 l 1,9,-1
 444 407 l 1,10,-1
 218 0 l 1,11,-1
 138 0 l 1,12,-1
 69 523 l 1,0,-1
EndSplineSet
EndChar

StartChar: x
Encoding: 120 120 92
Width: 499
GlyphClass: 2
Flags: W
LayerCount: 2
Fore
SplineSet
298 269 m 1,0,-1
 430 0 l 1,1,-1
 340 0 l 1,2,-1
 240 205 l 1,3,-1
 58 0 l 1,4,-1
 -42 0 l 1,5,-1
 206 273 l 1,6,-1
 83 523 l 1,7,-1
 174 523 l 1,8,-1
 266 336 l 1,9,-1
 432 523 l 1,10,-1
 531 523 l 1,11,-1
 298 269 l 1,0,-1
EndSplineSet
EndChar

StartChar: y
Encoding: 121 121 93
Width: 520
GlyphClass: 2
Flags: W
LayerCount: 2
Fore
SplineSet
563 523 m 1,0,-1
 214 -57 l 2,1,2
 184 -108 184 -108 140.5 -132.5 c 128,-1,3
 97 -157 97 -157 35 -157 c 2,4,-1
 -9 -157 l 1,5,-1
 7 -78 l 1,6,-1
 47 -78 l 2,7,8
 90 -78 90 -78 113.5 -65 c 128,-1,9
 137 -52 137 -52 156 -19 c 2,10,-1
 171 7 l 1,11,-1
 69 523 l 1,12,-1
 161 523 l 1,13,-1
 231 113 l 1,14,-1
 467 523 l 1,15,-1
 563 523 l 1,0,-1
EndSplineSet
EndChar

StartChar: z
Encoding: 122 122 94
Width: 509
GlyphClass: 2
Flags: W
LayerCount: 2
Fore
SplineSet
495 446 m 1,0,-1
 124 77 l 1,1,-1
 416 77 l 1,2,-1
 399 0 l 1,3,-1
 0 0 l 1,4,-1
 16 77 l 1,5,-1
 386 446 l 1,6,-1
 94 446 l 1,7,-1
 111 523 l 1,8,-1
 511 523 l 1,9,-1
 495 446 l 1,0,-1
EndSplineSet
EndChar

StartChar: braceleft
Encoding: 123 123 95
Width: 388
GlyphClass: 2
Flags: W
LayerCount: 2
Fore
SplineSet
90 -6 m 0,1,2
 90 7 90 7 95 38 c 2,3,-1
 133 216 l 2,4,5
 136 234 136 234 136 248 c 0,6,7
 136 275 136 275 119 286.5 c 128,-1,8
 102 298 102 298 62 299 c 1,9,-1
 80 378 l 1,10,11
 129 379 129 379 152.5 398 c 128,-1,12
 176 417 176 417 185 461 c 2,13,-1
 223 638 l 2,14,15
 236 699 236 699 272 728.5 c 128,-1,16
 308 758 308 758 370 758 c 2,17,-1
 438 758 l 1,18,-1
 422 683 l 1,19,-1
 377 683 l 2,20,21
 346 683 346 683 330 670.5 c 128,-1,22
 314 658 314 658 308 630 c 2,23,-1
 272 462 l 2,24,25
 260 406 260 406 239.5 378.5 c 128,-1,26
 219 351 219 351 181 338 c 1,27,28
 205 329 205 329 215.5 313 c 128,-1,29
 226 297 226 297 226 270 c 0,30,31
 226 245 226 245 219 214 c 2,32,-1
 184 50 l 2,33,34
 180 31 180 31 180 22 c 0,35,36
 180 5 180 5 192.5 -3 c 128,-1,37
 205 -11 205 -11 232 -11 c 2,38,-1
 274 -11 l 1,39,-1
 259 -86 l 1,40,-1
 195 -86 l 2,41,0
 90 -86 90 -86 90 -6 c 0,1,2
EndSplineSet
Substitution2: "'rtla' Right to Left Alternates lookup 0 subtable" braceright
EndChar

StartChar: bar
Encoding: 124 124 96
Width: 482
GlyphClass: 2
Flags: W
LayerCount: 2
Fore
SplineSet
215 758 m 1,0,-1
 299 758 l 1,1,-1
 299 -85 l 1,2,-1
 215 -85 l 1,3,-1
 215 758 l 1,0,-1
EndSplineSet
EndChar

StartChar: braceright
Encoding: 125 125 97
Width: 498
GlyphClass: 2
Flags: W
LayerCount: 2
Fore
SplineSet
52 -11 m 1,0,-1
 97 -11 l 2,1,2
 129 -11 129 -11 144.5 0.5 c 128,-1,3
 160 12 160 12 167 42 c 2,4,-1
 203 213 l 2,5,6
 215 270 215 270 235 297 c 128,-1,7
 255 324 255 324 293 337 c 1,8,9
 270 346 270 346 259.5 362 c 128,-1,10
 249 378 249 378 249 406 c 0,11,12
 249 432 249 432 256 461 c 2,13,-1
 291 622 l 2,14,15
 294 637 294 637 294 650 c 0,16,17
 294 667 294 667 281.5 675 c 128,-1,18
 269 683 269 683 243 683 c 2,19,-1
 200 683 l 1,20,-1
 216 758 l 1,21,-1
 281 758 l 2,22,23
 385 758 385 758 385 677 c 0,24,25
 385 658 385 658 380 634 c 2,26,-1
 343 460 l 2,27,28
 339 444 339 444 339 428 c 0,29,30
 339 401 339 401 356.5 389.5 c 128,-1,31
 374 378 374 378 414 377 c 1,32,-1
 395 298 l 1,33,34
 346 297 346 297 322.5 278 c 128,-1,35
 299 259 299 259 290 215 c 2,36,-1
 252 34 l 2,37,38
 239 -27 239 -27 203 -56.5 c 128,-1,39
 167 -86 167 -86 105 -86 c 2,40,-1
 36 -86 l 1,41,-1
 52 -11 l 1,0,-1
EndSplineSet
Substitution2: "'rtla' Right to Left Alternates lookup 0 subtable" braceleft
EndChar

StartChar: asciitilde
Encoding: 126 126 98
Width: 527
GlyphClass: 2
Flags: W
LayerCount: 2
Fore
SplineSet
302.5 221 m 128,-1,1
 281 230 281 230 254 248 c 0,2,3
 230 262 230 262 215.5 268.5 c 128,-1,4
 201 275 201 275 184 275 c 0,5,6
 160 275 160 275 143.5 262 c 128,-1,7
 127 249 127 249 108 215 c 1,8,-1
 48 252 l 1,9,10
 71 301 71 301 105.5 326.5 c 128,-1,11
 140 352 140 352 183 352 c 0,12,13
 209 352 209 352 230 343.5 c 128,-1,14
 251 335 251 335 279 317 c 0,15,16
 303 303 303 303 317.5 296.5 c 128,-1,17
 332 290 332 290 349 290 c 0,18,19
 373 290 373 290 390.5 303 c 128,-1,20
 408 316 408 316 426 349 c 1,21,-1
 485 312 l 1,22,23
 462 263 462 263 427 237.5 c 128,-1,24
 392 212 392 212 349 212 c 0,25,0
 324 212 324 212 302.5 221 c 128,-1,1
EndSplineSet
EndChar

StartChar: exclamdown
Encoding: 161 161 100
Width: 247
GlyphClass: 2
Flags: W
LayerCount: 2
Fore
SplineSet
127 523 m 1,0,-1
 232 523 l 1,1,-1
 210 416 l 1,2,-1
 104 416 l 1,3,-1
 127 523 l 1,0,-1
100 312 m 1,4,-1
 169 312 l 1,5,-1
 87 -157 l 1,6,-1
 -16 -157 l 1,7,-1
 100 312 l 1,4,-1
EndSplineSet
EndChar

StartChar: cent
Encoding: 162 162 101
Width: 567
GlyphClass: 2
Flags: W
LayerCount: 2
Fore
SplineSet
441 343 m 1,0,-1
 442 358 l 1,1,2
 442 440 442 440 357 453 c 1,3,-1
 275 69 l 1,4,5
 330 72 330 72 364 100 c 128,-1,6
 398 128 398 128 409 179 c 1,7,-1
 494 179 l 1,8,9
 481 92 481 92 418.5 42 c 128,-1,10
 356 -8 356 -8 258 -9 c 1,11,-1
 239 -102 l 1,12,-1
 175 -102 l 1,13,-1
 196 -4 l 1,14,15
 126 9 126 9 85.5 55 c 128,-1,16
 45 101 45 101 45 179 c 0,17,18
 45 210 45 210 52 247 c 2,19,-1
 65 307 l 2,20,21
 88 415 88 415 150.5 471 c 128,-1,22
 213 527 213 527 310 532 c 1,23,-1
 330 625 l 1,24,-1
 394 625 l 1,25,-1
 374 529 l 1,26,27
 446 519 446 519 487 478.5 c 128,-1,28
 528 438 528 438 528 369 c 0,29,30
 528 354 528 354 527 343 c 1,31,-1
 441 343 l 1,0,-1
213 74 m 1,33,-1
 293 453 l 1,34,35
 238 447 238 447 202 410.5 c 128,-1,36
 166 374 166 374 151 300 c 2,37,-1
 138 245 l 2,38,39
 132 213 132 213 132 187 c 0,40,32
 132 94 132 94 213 74 c 1,33,-1
EndSplineSet
EndChar

StartChar: sterling
Encoding: 163 163 102
Width: 505
GlyphClass: 2
Flags: W
LayerCount: 2
Fore
SplineSet
496.5 684.5 m 128,-1,1
 538 652 538 652 538 593 c 0,2,3
 538 569 538 569 532 550 c 1,4,-1
 443 550 l 1,5,6
 446 562 446 562 446 574 c 0,7,8
 446 603 446 603 426 618.5 c 128,-1,9
 406 634 406 634 369 634 c 0,10,11
 278 634 278 634 256 531 c 2,12,-1
 223 375 l 1,13,-1
 393 375 l 1,14,-1
 376 293 l 1,15,-1
 206 293 l 1,16,-1
 184 190 l 2,17,18
 169 118 169 118 124 84 c 1,19,-1
 437 84 l 1,20,-1
 420 0 l 1,21,-1
 -2 0 l 1,22,-1
 15 78 l 1,23,24
 46 91 46 91 63 115 c 128,-1,25
 80 139 80 139 88 180 c 2,26,-1
 112 293 l 1,27,-1
 38 293 l 1,28,-1
 55 375 l 1,29,-1
 129 375 l 1,30,-1
 161 523 l 2,31,32
 181 616 181 616 237 666.5 c 128,-1,33
 293 717 293 717 382 717 c 0,34,0
 455 717 455 717 496.5 684.5 c 128,-1,1
EndSplineSet
EndChar

StartChar: currency
Encoding: 164 164 103
Width: 625
GlyphClass: 2
Flags: W
LayerCount: 2
Fore
SplineSet
411 159 m 1,0,1
 357 127 357 127 293 127 c 0,2,3
 224 127 224 127 179 163 c 1,4,-1
 93 92 l 1,5,-1
 49 148 l 1,6,-1
 136 219 l 1,7,8
 122 251 122 251 122 288 c 0,9,10
 122 331 122 331 137.5 373.5 c 128,-1,11
 153 416 153 416 180 447 c 1,12,-1
 125 518 l 1,13,-1
 189 571 l 1,14,-1
 245 504 l 1,15,16
 297 536 297 536 362 536 c 256,17,18
 428 536 428 536 477 500 c 1,19,-1
 561 569 l 1,20,-1
 605 513 l 1,21,-1
 520 443 l 1,22,23
 534 411 534 411 535 375 c 0,24,25
 535 330 535 330 519.5 287.5 c 128,-1,26
 504 245 504 245 475 213 c 1,27,-1
 530 144 l 1,28,-1
 466 89 l 1,29,-1
 411 159 l 1,0,1
382 223.5 m 128,-1,31
 417 245 417 245 437 281 c 128,-1,32
 457 317 457 317 457 360 c 0,33,34
 457 405 457 405 428 433 c 128,-1,35
 399 461 399 461 351 461 c 0,36,37
 308 461 308 461 273.5 439 c 128,-1,38
 239 417 239 417 219 380 c 128,-1,39
 199 343 199 343 199 301 c 0,40,41
 199 256 199 256 228 229 c 128,-1,42
 257 202 257 202 305 202 c 0,43,30
 347 202 347 202 382 223.5 c 128,-1,31
EndSplineSet
EndChar

StartChar: yen
Encoding: 165 165 104
Width: 538
GlyphClass: 2
Flags: W
LayerCount: 2
Fore
SplineSet
199 146 m 1,0,-1
 34 146 l 1,1,-1
 48 214 l 1,2,-1
 213 214 l 1,3,-1
 227 280 l 1,4,-1
 62 280 l 1,5,-1
 77 347 l 1,6,-1
 220 347 l 1,7,-1
 103 707 l 1,8,-1
 205 707 l 1,9,-1
 295 387 l 1,10,-1
 515 707 l 1,11,-1
 624 707 l 1,12,-1
 356 347 l 1,13,-1
 500 347 l 1,14,-1
 484 280 l 1,15,-1
 319 280 l 1,16,-1
 305 214 l 1,17,-1
 471 214 l 1,18,-1
 457 146 l 1,19,-1
 292 146 l 1,20,-1
 260 0 l 1,21,-1
 168 0 l 1,22,-1
 199 146 l 1,0,-1
EndSplineSet
EndChar

StartChar: brokenbar
Encoding: 166 166 105
Width: 482
GlyphClass: 2
Flags: W
LayerCount: 2
Fore
SplineSet
215 758 m 1,0,-1
 299 758 l 1,1,-1
 299 397 l 1,2,-1
 215 397 l 1,3,-1
 215 758 l 1,0,-1
215 278 m 1,4,-1
 299 278 l 1,5,-1
 299 -85 l 1,6,-1
 215 -85 l 1,7,-1
 215 278 l 1,4,-1
EndSplineSet
EndChar

StartChar: section
Encoding: 167 167 106
Width: 570
GlyphClass: 2
Flags: W
LayerCount: 2
Fore
SplineSet
74.5 -140 m 128,-1,1
 29 -108 29 -108 29 -47 c 0,2,3
 29 -30 29 -30 34 -2 c 1,4,-1
 118 -2 l 1,5,6
 115 -16 115 -16 115 -29 c 0,7,8
 115 -95 115 -95 207 -94 c 0,9,10
 258 -94 258 -94 289.5 -73.5 c 128,-1,11
 321 -53 321 -53 329 -14 c 0,12,13
 331 -5 331 -5 331 8 c 0,14,15
 331 42 331 42 303 60.5 c 128,-1,16
 275 79 275 79 208 94 c 0,17,18
 150 107 150 107 112.5 141 c 128,-1,19
 75 175 75 175 75 234 c 0,20,21
 75 254 75 254 80 284 c 0,22,23
 92 344 92 344 129 386 c 128,-1,24
 166 428 166 428 223 443 c 1,25,26
 163 476 163 476 163 545 c 0,27,28
 163 599 163 599 191 642 c 128,-1,29
 219 685 219 685 268 708.5 c 128,-1,30
 317 732 317 732 380 732 c 0,31,32
 458 732 458 732 501 699.5 c 128,-1,33
 544 667 544 667 544 609 c 0,34,35
 544 586 544 586 540 566 c 1,36,-1
 456 566 l 1,37,38
 459 580 459 580 459 591 c 0,39,40
 459 622 459 622 436.5 638 c 128,-1,41
 414 654 414 654 370 654 c 0,42,43
 317 654 317 654 285 628 c 128,-1,44
 253 602 253 602 253 555 c 0,45,46
 253 522 253 522 279.5 504 c 128,-1,47
 306 486 306 486 372 470 c 0,48,49
 434 454 434 454 469.5 421.5 c 128,-1,50
 505 389 505 389 505 331 c 0,51,52
 505 308 505 308 499 282 c 0,53,54
 488 221 488 221 450 179 c 128,-1,55
 412 137 412 137 357 122 c 1,56,57
 422 91 422 91 422 26 c 0,58,59
 422 11 422 11 417 -15 c 0,60,61
 402 -88 402 -88 344.5 -130 c 128,-1,62
 287 -172 287 -172 201 -172 c 0,63,0
 120 -172 120 -172 74.5 -140 c 128,-1,1
363 199.5 m 128,-1,65
 400 227 400 227 412 281 c 0,66,67
 415 298 415 298 415 312 c 0,68,69
 415 351 415 351 388.5 372 c 128,-1,70
 362 393 362 393 313 393 c 0,71,72
 254 393 254 393 216 365 c 128,-1,73
 178 337 178 337 168 284 c 0,74,75
 164 261 164 261 164 252 c 0,76,77
 164 214 164 214 190.5 193 c 128,-1,78
 217 172 217 172 266 172 c 0,79,64
 326 172 326 172 363 199.5 c 128,-1,65
EndSplineSet
EndChar

StartChar: dieresis
Encoding: 168 168 107
Width: 512
GlyphClass: 2
Flags: W
LayerCount: 2
Fore
SplineSet
195 692 m 1,0,-1
 283 692 l 1,1,-1
 262 595 l 1,2,-1
 174 595 l 1,3,-1
 195 692 l 1,0,-1
412 692 m 1,4,-1
 499 692 l 1,5,-1
 479 595 l 1,6,-1
 391 595 l 1,7,-1
 412 692 l 1,4,-1
EndSplineSet
EndChar

StartChar: copyright
Encoding: 169 169 108
Width: 846
GlyphClass: 2
Flags: W
LayerCount: 2
Fore
SplineSet
258 35.5 m 128,-1,1
 178 81 178 81 134 162.5 c 128,-1,2
 90 244 90 244 90 349 c 256,3,4
 90 454 90 454 134 535.5 c 128,-1,5
 178 617 178 617 258.5 662.5 c 128,-1,6
 339 708 339 708 442 708 c 256,7,8
 545 708 545 708 625.5 662.5 c 128,-1,9
 706 617 706 617 750 536 c 128,-1,10
 794 455 794 455 794 349 c 256,11,12
 794 244 794 244 750 162.5 c 128,-1,13
 706 81 706 81 626 35.5 c 128,-1,14
 546 -10 546 -10 442 -10 c 0,15,0
 338 -10 338 -10 258 35.5 c 128,-1,1
593.5 88.5 m 128,-1,17
 658 125 658 125 693 192.5 c 128,-1,18
 728 260 728 260 728 349 c 256,19,20
 728 438 728 438 692.5 505.5 c 128,-1,21
 657 573 657 573 592.5 609.5 c 128,-1,22
 528 646 528 646 442 646 c 0,23,24
 355 646 355 646 290.5 609.5 c 128,-1,25
 226 573 226 573 191 505.5 c 128,-1,26
 156 438 156 438 156 349 c 256,27,28
 156 260 156 260 191 192.5 c 128,-1,29
 226 125 226 125 290.5 88.5 c 128,-1,30
 355 52 355 52 442 52 c 256,31,16
 529 52 529 52 593.5 88.5 c 128,-1,17
320.5 196 m 128,-1,33
 274 240 274 240 274 326 c 2,34,-1
 274 375 l 2,35,36
 274 461 274 461 320.5 505 c 128,-1,37
 367 549 367 549 444 549 c 0,38,39
 518 549 518 549 561.5 513 c 128,-1,40
 605 477 605 477 605 415 c 2,41,-1
 605 412 l 1,42,-1
 539 412 l 1,43,-1
 539 414 l 2,44,45
 539 450 539 450 514 469.5 c 128,-1,46
 489 489 489 489 446 489 c 0,47,48
 341 489 341 489 341 373 c 2,49,-1
 341 328 l 2,50,51
 341 266 341 266 368.5 238 c 128,-1,52
 396 210 396 210 447 210 c 0,53,54
 490 210 490 210 514.5 230 c 128,-1,55
 539 250 539 250 539 286 c 2,56,-1
 539 289 l 1,57,-1
 604 289 l 1,58,-1
 604 285 l 2,59,60
 604 224 604 224 561 188 c 128,-1,61
 518 152 518 152 444 152 c 0,62,32
 367 152 367 152 320.5 196 c 128,-1,33
EndSplineSet
EndChar

StartChar: ordfeminine
Encoding: 170 170 109
Width: 351
GlyphClass: 2
Flags: W
LayerCount: 2
Fore
SplineSet
109.5 461.5 m 128,-1,1
 82 489 82 489 82 541 c 0,2,3
 82 567 82 567 87 586 c 2,4,-1
 95 627 l 2,5,6
 108 697 108 697 145.5 731.5 c 128,-1,7
 183 766 183 766 240 766 c 0,8,9
 303 766 303 766 331 720 c 1,10,-1
 339 761 l 1,11,-1
 407 761 l 1,12,-1
 339 439 l 1,13,-1
 270 439 l 1,14,-1
 279 477 l 1,15,16
 248 434 248 434 185 434 c 0,17,0
 137 434 137 434 109.5 461.5 c 128,-1,1
269.5 519 m 128,-1,19
 292 541 292 541 300 581 c 2,20,-1
 307 615 l 2,21,22
 310 626 310 626 310 644 c 0,23,24
 310 672 310 672 294.5 687.5 c 128,-1,25
 279 703 279 703 248 703 c 0,26,27
 214 703 214 703 193.5 684.5 c 128,-1,28
 173 666 173 666 164 624 c 2,29,-1
 156 586 l 2,30,31
 152 563 152 563 152 555 c 0,32,33
 152 526 152 526 167.5 511.5 c 128,-1,34
 183 497 183 497 211 497 c 0,35,18
 247 497 247 497 269.5 519 c 128,-1,19
20 717 m 1024,36,-1
EndSplineSet
EndChar

StartChar: guillemotleft
Encoding: 171 171 110
Width: 560
GlyphClass: 2
Flags: W
LayerCount: 2
Fore
SplineSet
26 270 m 1,0,-1
 307 482 l 1,1,-1
 287 386 l 1,2,-1
 130 269 l 1,3,-1
 237 153 l 1,4,-1
 217 58 l 1,5,-1
 26 270 l 1,0,-1
255 270 m 1,6,-1
 537 482 l 1,7,-1
 516 386 l 1,8,-1
 360 269 l 1,9,-1
 467 153 l 1,10,-1
 446 58 l 1,11,-1
 255 270 l 1,6,-1
EndSplineSet
EndChar

StartChar: logicalnot
Encoding: 172 172 111
Width: 527
GlyphClass: 2
Flags: W
LayerCount: 2
Fore
SplineSet
383 267 m 1,0,-1
 51 267 l 1,1,-1
 51 346 l 1,2,-1
 470 346 l 1,3,-1
 470 130 l 1,4,-1
 383 130 l 1,5,-1
 383 267 l 1,0,-1
EndSplineSet
EndChar

StartChar: registered
Encoding: 174 174 113
Width: 546
GlyphClass: 2
Flags: W
LayerCount: 2
Fore
SplineSet
227 340 m 128,-1,1
 183 366 183 366 158 411 c 128,-1,2
 133 456 133 456 133 511 c 256,3,4
 133 566 133 566 158 610.5 c 128,-1,5
 183 655 183 655 227 681 c 128,-1,6
 271 707 271 707 326 707 c 0,7,8
 381 707 381 707 425 681 c 128,-1,9
 469 655 469 655 494 610 c 128,-1,10
 519 565 519 565 519 511 c 0,11,12
 519 455 519 455 494 410.5 c 128,-1,13
 469 366 469 366 425 340 c 128,-1,14
 381 314 381 314 326 314 c 0,15,0
 271 314 271 314 227 340 c 128,-1,1
438 393.5 m 128,-1,17
 482 439 482 439 482 511 c 0,18,19
 482 581 482 581 438 626.5 c 128,-1,20
 394 672 394 672 326 672 c 0,21,22
 258 672 258 672 214 626.5 c 128,-1,23
 170 581 170 581 170 511 c 0,24,25
 170 439 170 439 214 393.5 c 128,-1,26
 258 348 258 348 326 348 c 0,27,16
 394 348 394 348 438 393.5 c 128,-1,17
252 621 m 1,28,-1
 338 621 l 2,29,30
 374 621 374 621 393 604 c 128,-1,31
 412 587 412 587 412 555 c 0,32,33
 412 511 412 511 373 495 c 1,34,-1
 417 402 l 1,35,-1
 372 402 l 1,36,-1
 331 489 l 1,37,-1
 294 489 l 1,38,-1
 294 402 l 1,39,-1
 252 402 l 1,40,-1
 252 621 l 1,28,-1
336 526 m 2,41,42
 370 526 370 526 370 555 c 0,43,44
 370 585 370 585 336 585 c 2,45,-1
 294 585 l 1,46,-1
 294 526 l 1,47,-1
 336 526 l 2,41,42
EndSplineSet
EndChar

StartChar: macron
Encoding: 175 175 114
Width: 505
GlyphClass: 2
Flags: W
LayerCount: 2
Fore
SplineSet
191 683 m 1,0,-1
 500 683 l 1,1,-1
 482 604 l 1,2,-1
 175 604 l 1,3,-1
 191 683 l 1,0,-1
EndSplineSet
EndChar

StartChar: degree
Encoding: 176 176 115
Width: 373
GlyphClass: 2
Flags: W
LayerCount: 2
Fore
SplineSet
149 467.5 m 128,-1,1
 108 509 108 509 108 571 c 256,2,3
 108 633 108 633 149 675 c 128,-1,4
 190 717 190 717 253 717 c 0,5,6
 293 717 293 717 326 698 c 128,-1,7
 359 679 359 679 378.5 645.5 c 128,-1,8
 398 612 398 612 398 571 c 256,9,10
 398 530 398 530 378.5 497 c 128,-1,11
 359 464 359 464 326 445 c 128,-1,12
 293 426 293 426 253 426 c 0,13,0
 190 426 190 426 149 467.5 c 128,-1,1
313.5 509 m 128,-1,15
 337 534 337 534 337 571 c 0,16,17
 337 610 337 610 313.5 634.5 c 128,-1,18
 290 659 290 659 253 659 c 256,19,20
 216 659 216 659 192 634 c 128,-1,21
 168 609 168 609 168 571 c 256,22,23
 168 533 168 533 192 508.5 c 128,-1,24
 216 484 216 484 253 484 c 256,25,14
 290 484 290 484 313.5 509 c 128,-1,15
EndSplineSet
EndChar

StartChar: plusminus
Encoding: 177 177 116
Width: 527
GlyphClass: 2
Flags: W
LayerCount: 2
Fore
SplineSet
205 287 m 1,0,-1
 37 287 l 1,1,-1
 37 369 l 1,2,-1
 205 369 l 1,3,-1
 205 537 l 1,4,-1
 288 537 l 1,5,-1
 288 369 l 1,6,-1
 456 369 l 1,7,-1
 456 287 l 1,8,-1
 288 287 l 1,9,-1
 288 118 l 1,10,-1
 205 118 l 1,11,-1
 205 287 l 1,0,-1
37 69 m 1,12,-1
 456 69 l 1,13,-1
 456 -14 l 1,14,-1
 37 -14 l 1,15,-1
 37 69 l 1,12,-1
EndSplineSet
EndChar

StartChar: uni00B2
Encoding: 178 178 117
Width: 412
GlyphClass: 2
Flags: W
LayerCount: 2
Fore
SplineSet
119 503 m 1,0,-1
 314 675 l 2,1,2
 344 700 344 700 358 721 c 128,-1,3
 372 742 372 742 372 764 c 256,4,5
 372 786 372 786 357.5 797.5 c 128,-1,6
 343 809 343 809 316 809 c 0,7,8
 287 809 287 809 268 794.5 c 128,-1,9
 249 780 249 780 245 753 c 2,10,-1
 244 743 l 1,11,-1
 166 743 l 1,12,-1
 168 755 l 2,13,14
 178 812 178 812 220.5 844 c 128,-1,15
 263 876 263 876 328 876 c 0,16,17
 387 876 387 876 421.5 848.5 c 128,-1,18
 456 821 456 821 456 776 c 0,19,20
 456 733 456 733 432.5 698.5 c 128,-1,21
 409 664 409 664 364 627 c 2,22,-1
 237 510 l 1,23,-1
 401 510 l 1,24,-1
 387 440 l 1,25,-1
 104 440 l 1,26,-1
 119 503 l 1,0,-1
EndSplineSet
EndChar

StartChar: uni00B3
Encoding: 179 179 118
Width: 397
GlyphClass: 2
Flags: W
LayerCount: 2
Fore
SplineSet
146.5 456.5 m 128,-1,1
 113 479 113 479 113 520 c 0,2,3
 113 533 113 533 119 558 c 1,4,-1
 190 558 l 1,5,6
 188 550 188 550 188 539 c 0,7,8
 188 521 188 521 203.5 510 c 128,-1,9
 219 499 219 499 247 499 c 0,10,11
 286 499 286 499 307.5 522.5 c 128,-1,12
 329 546 329 546 329 581 c 0,13,14
 329 605 329 605 313.5 616.5 c 128,-1,15
 298 628 298 628 266 628 c 2,16,-1
 242 628 l 1,17,-1
 256 694 l 1,18,-1
 280 694 l 2,19,20
 318 694 318 694 339.5 714.5 c 128,-1,21
 361 735 361 735 361 767 c 0,22,23
 361 810 361 810 306 810 c 0,24,25
 276 810 276 810 258.5 796.5 c 128,-1,26
 241 783 241 783 237 760 c 2,27,-1
 234 752 l 1,28,-1
 162 752 l 1,29,-1
 164 763 l 2,30,31
 174 817 174 817 213.5 846.5 c 128,-1,32
 253 876 253 876 316 876 c 0,33,34
 375 876 375 876 408 850.5 c 128,-1,35
 441 825 441 825 441 780 c 0,36,37
 441 741 441 741 418 709 c 128,-1,38
 395 677 395 677 356 667 c 1,39,40
 408 648 408 648 409 589 c 0,41,42
 409 522 409 522 361.5 478 c 128,-1,43
 314 434 314 434 238 434 c 0,44,0
 180 434 180 434 146.5 456.5 c 128,-1,1
EndSplineSet
EndChar

StartChar: acute
Encoding: 180 180 119
Width: 512
GlyphClass: 2
Flags: W
LayerCount: 2
Fore
SplineSet
361 721 m 1,0,-1
 473 721 l 1,1,-1
 316 591 l 1,2,-1
 233 591 l 1,3,-1
 361 721 l 1,0,-1
EndSplineSet
EndChar

StartChar: uni00B5
Encoding: 181 181 120
Width: 581
GlyphClass: 2
Flags: W
LayerCount: 2
Fore
SplineSet
126 523 m 1,0,-1
 213 523 l 1,1,-1
 148 220 l 2,2,3
 141 185 141 185 141 161 c 0,4,5
 141 118 141 118 169 94.5 c 128,-1,6
 197 71 197 71 246 71 c 0,7,8
 309 71 309 71 354.5 112 c 128,-1,9
 400 153 400 153 416 226 c 2,10,-1
 479 523 l 1,11,-1
 567 523 l 1,12,-1
 456 0 l 1,13,-1
 370 0 l 1,14,-1
 384 68 l 1,15,16
 317 -7 317 -7 215 -7 c 0,17,18
 145 -7 145 -7 110 33 c 1,19,-1
 69 -157 l 1,20,-1
 -18 -157 l 1,21,-1
 126 523 l 1,0,-1
EndSplineSet
EndChar

StartChar: paragraph
Encoding: 182 182 121
Width: 654
GlyphClass: 2
Flags: W
LayerCount: 2
Fore
SplineSet
326 279 m 1,0,-1
 324 279 l 2,1,2
 230 279 230 279 174.5 323.5 c 128,-1,3
 119 368 119 368 119 440 c 0,4,5
 119 470 119 470 125 498 c 0,6,7
 145 595 145 595 221.5 651 c 128,-1,8
 298 707 298 707 412 707 c 2,9,-1
 674 707 l 1,10,-1
 490 -157 l 1,11,-1
 409 -157 l 1,12,-1
 575 629 l 1,13,-1
 482 629 l 1,14,-1
 315 -157 l 1,15,-1
 233 -157 l 1,16,-1
 326 279 l 1,0,-1
EndSplineSet
EndChar

StartChar: cedilla
Encoding: 184 184 123
Width: 505
GlyphClass: 2
Flags: W
LayerCount: 2
Fore
SplineSet
205 12 m 1,0,-1
 282 12 l 1,1,-1
 177 -156 l 1,2,-1
 86 -156 l 1,3,-1
 205 12 l 1,0,-1
EndSplineSet
EndChar

StartChar: uni00B9
Encoding: 185 185 124
Width: 282
GlyphClass: 2
Flags: W
LayerCount: 2
Fore
SplineSet
245 785 m 1,0,-1
 142 730 l 1,1,-1
 160 814 l 1,2,-1
 262 868 l 1,3,-1
 344 868 l 1,4,-1
 253 440 l 1,5,-1
 171 440 l 1,6,-1
 245 785 l 1,0,-1
EndSplineSet
EndChar

StartChar: ordmasculine
Encoding: 186 186 125
Width: 376
GlyphClass: 2
Flags: W
LayerCount: 2
Fore
SplineSet
141 465 m 128,-1,1
 105 494 105 494 105 546 c 0,2,3
 105 568 105 568 110 589 c 2,4,-1
 119 629 l 2,5,6
 148 766 148 766 285 766 c 0,7,8
 344 766 344 766 379.5 737 c 128,-1,9
 415 708 415 708 415 655 c 0,10,11
 415 635 415 635 411 614 c 2,12,-1
 402 573 l 2,13,14
 389 504 389 504 346.5 470 c 128,-1,15
 304 436 304 436 237 436 c 0,16,0
 177 436 177 436 141 465 c 128,-1,1
301.5 522 m 128,-1,18
 322 541 322 541 330 580 c 2,19,-1
 337 615 l 2,20,21
 340 629 340 629 340 643 c 0,22,23
 340 671 340 671 322.5 685 c 128,-1,24
 305 699 305 699 275 699 c 0,25,26
 207 699 207 699 191 624 c 2,27,-1
 183 587 l 2,28,29
 180 574 180 574 180 561 c 0,30,31
 180 531 180 531 198 517 c 128,-1,32
 216 503 216 503 246 503 c 0,33,17
 281 503 281 503 301.5 522 c 128,-1,18
31 717 m 1024,34,-1
EndSplineSet
EndChar

StartChar: guillemotright
Encoding: 187 187 126
Width: 560
GlyphClass: 2
Flags: W
LayerCount: 2
Fore
SplineSet
48 155 m 1,0,-1
 204 271 l 1,1,-1
 97 388 l 1,2,-1
 117 482 l 1,3,-1
 309 270 l 1,4,-1
 28 58 l 1,5,-1
 48 155 l 1,0,-1
278 155 m 1,6,-1
 433 271 l 1,7,-1
 327 388 l 1,8,-1
 347 482 l 1,9,-1
 539 270 l 1,10,-1
 257 58 l 1,11,-1
 278 155 l 1,6,-1
EndSplineSet
EndChar

StartChar: onequarter
Encoding: 188 188 127
Width: 905
GlyphClass: 3
Flags: W
LayerCount: 2
Fore
SplineSet
719 709 m 1,0,-1
 191 0 l 1,1,-1
 115 0 l 1,2,-1
 641 709 l 1,3,-1
 719 709 l 1,0,-1
210 624 m 1,4,-1
 109 568 l 1,5,-1
 126 652 l 1,6,-1
 227 707 l 1,7,-1
 309 707 l 1,8,-1
 218 279 l 1,9,-1
 137 279 l 1,10,-1
 210 624 l 1,4,-1
825 72 m 1,11,-1
 785 72 l 1,12,-1
 770 0 l 1,13,-1
 690 0 l 1,14,-1
 706 72 l 1,15,-1
 511 72 l 1,16,-1
 525 141 l 1,17,-1
 725 428 l 1,18,-1
 811 428 l 1,19,-1
 611 141 l 1,20,-1
 721 141 l 1,21,-1
 741 239 l 1,22,-1
 820 239 l 1,23,-1
 800 141 l 1,24,-1
 841 141 l 1,25,-1
 825 72 l 1,11,-1
EndSplineSet
Ligature2: "'frac' Diagonal Fractions lookup 2 subtable" one slash four
EndChar

StartChar: onehalf
Encoding: 189 189 128
Width: 922
GlyphClass: 3
Flags: W
LayerCount: 2
Fore
SplineSet
641 709 m 1,0,-1
 719 709 l 1,1,-1
 191 0 l 1,2,-1
 115 0 l 1,3,-1
 641 709 l 1,0,-1
210 624 m 1,4,-1
 109 568 l 1,5,-1
 126 652 l 1,6,-1
 227 707 l 1,7,-1
 309 707 l 1,8,-1
 218 279 l 1,9,-1
 137 279 l 1,10,-1
 210 624 l 1,4,-1
536 62 m 1,11,-1
 732 234 l 2,12,13
 761 259 761 259 774.5 280.5 c 128,-1,14
 788 302 788 302 788 324 c 256,15,16
 788 346 788 346 774 357.5 c 128,-1,17
 760 369 760 369 734 369 c 0,18,19
 704 369 704 369 685.5 354.5 c 128,-1,20
 667 340 667 340 663 312 c 2,21,-1
 660 303 l 1,22,-1
 584 303 l 1,23,-1
 586 314 l 2,24,25
 596 371 596 371 638 403 c 128,-1,26
 680 435 680 435 744 435 c 0,27,28
 803 435 803 435 837.5 408.5 c 128,-1,29
 872 382 872 382 872 336 c 0,30,31
 872 293 872 293 848.5 258 c 128,-1,32
 825 223 825 223 781 186 c 2,33,-1
 653 70 l 1,34,-1
 819 70 l 1,35,-1
 804 0 l 1,36,-1
 522 0 l 1,37,-1
 536 62 l 1,11,-1
EndSplineSet
Ligature2: "'frac' Diagonal Fractions lookup 2 subtable" one slash two
EndChar

StartChar: threequarters
Encoding: 190 190 129
Width: 1019
GlyphClass: 3
Flags: W
LayerCount: 2
Fore
SplineSet
326 316 m 128,-1,1
 279 272 279 272 202 272 c 0,2,3
 146 272 146 272 112 295 c 128,-1,4
 78 318 78 318 78 358 c 0,5,6
 78 368 78 368 80 380 c 128,-1,7
 82 392 82 392 83 396 c 1,8,-1
 155 396 l 1,9,10
 153 380 153 380 153 378 c 0,11,12
 153 360 153 360 168.5 348.5 c 128,-1,13
 184 337 184 337 212 337 c 0,14,15
 251 337 251 337 272.5 361 c 128,-1,16
 294 385 294 385 294 420 c 0,17,18
 294 467 294 467 231 467 c 2,19,-1
 207 467 l 1,20,-1
 221 532 l 1,21,-1
 245 532 l 2,22,23
 283 532 283 532 305 552.5 c 128,-1,24
 327 573 327 573 327 605 c 0,25,26
 327 648 327 648 271 648 c 0,27,28
 241 648 241 648 223.5 635 c 128,-1,29
 206 622 206 622 201 598 c 2,30,-1
 200 590 l 1,31,-1
 127 590 l 1,32,-1
 129 602 l 2,33,34
 138 655 138 655 178 684.5 c 128,-1,35
 218 714 218 714 282 714 c 0,36,37
 340 714 340 714 373.5 688.5 c 128,-1,38
 407 663 407 663 407 618 c 0,39,40
 407 579 407 579 383.5 547 c 128,-1,41
 360 515 360 515 322 506 c 1,42,43
 373 487 373 487 373 427 c 0,44,0
 373 360 373 360 326 316 c 128,-1,1
833 709 m 1,45,-1
 305 0 l 1,46,-1
 228 0 l 1,47,-1
 755 709 l 1,48,-1
 833 709 l 1,45,-1
939 72 m 1,49,-1
 899 72 l 1,50,-1
 884 0 l 1,51,-1
 804 0 l 1,52,-1
 819 72 l 1,53,-1
 625 72 l 1,54,-1
 639 141 l 1,55,-1
 839 428 l 1,56,-1
 925 428 l 1,57,-1
 725 141 l 1,58,-1
 835 141 l 1,59,-1
 855 239 l 1,60,-1
 934 239 l 1,61,-1
 913 141 l 1,62,-1
 954 141 l 1,63,-1
 939 72 l 1,49,-1
EndSplineSet
Ligature2: "'frac' Diagonal Fractions lookup 2 subtable" three slash four
EndChar

StartChar: questiondown
Encoding: 191 191 130
Width: 494
GlyphClass: 2
Flags: W
LayerCount: 2
Fore
SplineSet
258 523 m 1,0,-1
 362 523 l 1,1,-1
 340 418 l 1,2,-1
 236 418 l 1,3,-1
 258 523 l 1,0,-1
37 -128 m 128,-1,5
 -12 -89 -12 -89 -12 -22 c 0,6,7
 -12 30 -12 30 12 72.5 c 128,-1,8
 36 115 36 115 83 154 c 2,9,-1
 158 215 l 2,10,11
 188 240 188 240 199.5 259.5 c 128,-1,12
 211 279 211 279 219 312 c 2,13,-1
 224 338 l 1,14,-1
 315 338 l 1,15,-1
 307 305 l 2,16,17
 297 257 297 257 280.5 229.5 c 128,-1,18
 264 202 264 202 223 169 c 2,19,-1
 160 118 l 2,20,21
 120 85 120 85 100 56 c 128,-1,22
 80 27 80 27 80 -10 c 0,23,24
 80 -46 80 -46 106.5 -65.5 c 128,-1,25
 133 -85 133 -85 183 -85 c 0,26,27
 241 -85 241 -85 274 -59 c 128,-1,28
 307 -33 307 -33 317 19 c 1,29,-1
 407 19 l 1,30,31
 371 -167 371 -167 170 -167 c 0,32,4
 86 -167 86 -167 37 -128 c 128,-1,5
EndSplineSet
EndChar

StartChar: Aring
Encoding: 197 197 136
Width: 671
GlyphClass: 2
Flags: W
LayerCount: 2
Fore
SplineSet
486 160 m 1,0,-1
 146 160 l 1,1,-1
 50 0 l 1,2,-1
 -51 0 l 1,3,-1
 391 707 l 1,4,-1
 394 707 l 1,5,6
 371 718 371 718 358 741 c 128,-1,7
 345 764 345 764 345 792 c 0,8,9
 345 834 345 834 372.5 862 c 128,-1,10
 400 890 400 890 441 890 c 0,11,12
 483 890 483 890 511 862 c 128,-1,13
 539 834 539 834 539 792 c 0,14,15
 539 758 539 758 520 733 c 128,-1,16
 501 708 501 708 470 699 c 1,17,-1
 611 0 l 1,18,-1
 515 0 l 1,19,-1
 486 160 l 1,0,-1
405 830 m 128,-1,21
 390 814 390 814 390 792 c 256,22,23
 390 769 390 769 405 754 c 128,-1,24
 420 739 420 739 441 739 c 0,25,26
 464 739 464 739 479 754 c 128,-1,27
 494 769 494 769 494 792 c 0,28,29
 494 816 494 816 479 831 c 128,-1,30
 464 846 464 846 441 846 c 0,31,20
 420 846 420 846 405 830 c 128,-1,21
472 239 m 1,32,-1
 408 592 l 1,33,-1
 195 239 l 1,34,-1
 472 239 l 1,32,-1
EndSplineSet
EndChar

StartChar: AE
Encoding: 198 198 137
Width: 1013
GlyphClass: 2
Flags: W
LayerCount: 2
Fore
SplineSet
654 624 m 1,0,-1
 606 399 l 1,1,-1
 934 399 l 1,2,-1
 918 317 l 1,3,-1
 589 317 l 1,4,-1
 539 83 l 1,5,-1
 924 83 l 1,6,-1
 905 0 l 1,7,-1
 429 0 l 1,8,-1
 464 166 l 1,9,-1
 194 166 l 1,10,-1
 59 0 l 1,11,-1
 -51 0 l 1,12,-1
 527 707 l 1,13,-1
 1056 707 l 1,14,-1
 1038 624 l 1,15,-1
 654 624 l 1,0,-1
560 621 m 1,16,-1
 256 244 l 1,17,-1
 480 244 l 1,18,-1
 560 621 l 1,16,-1
EndSplineSet
EndChar

StartChar: Ccedilla
Encoding: 199 199 138
Width: 690
GlyphClass: 2
Flags: W
LayerCount: 2
Fore
SplineSet
582 485 m 1,0,1
 583 495 583 495 583 510 c 0,2,3
 583 569 583 569 542 602 c 128,-1,4
 501 635 501 635 423 635 c 0,5,6
 326 635 326 635 269 582.5 c 128,-1,7
 212 530 212 530 187 414 c 2,8,-1
 163 299 l 2,9,10
 154 258 154 258 154 224 c 0,11,12
 154 149 154 149 198.5 111.5 c 128,-1,13
 243 74 243 74 326 74 c 0,14,15
 407 74 407 74 459 111 c 128,-1,16
 511 148 511 148 527 222 c 1,17,-1
 618 222 l 1,18,19
 594 119 594 119 526 59.5 c 128,-1,20
 458 0 458 0 352 -9 c 1,21,-1
 261 -156 l 1,22,-1
 170 -156 l 1,23,-1
 274 -8 l 1,24,25
 174 2 174 2 117.5 58.5 c 128,-1,26
 61 115 61 115 61 214 c 0,27,28
 61 255 61 255 71 302 c 2,29,-1
 96 420 l 2,30,31
 128 574 128 574 211.5 646 c 128,-1,32
 295 718 295 718 430 718 c 0,33,34
 547 718 547 718 612 665.5 c 128,-1,35
 677 613 677 613 677 523 c 0,36,37
 677 498 677 498 675 485 c 1,38,-1
 582 485 l 1,0,1
EndSplineSet
EndChar

StartChar: Eth
Encoding: 208 208 147
Width: 744
GlyphClass: 2
Flags: W
LayerCount: 2
Fore
SplineSet
657 652.5 m 128,-1,1
 723 598 723 598 723 492 c 0,2,3
 723 451 723 451 712 397 c 2,4,-1
 690 294 l 2,5,6
 657 141 657 141 573 70.5 c 128,-1,7
 489 0 489 0 352 0 c 2,8,-1
 72 0 l 1,9,-1
 139 316 l 1,10,-1
 47 316 l 1,11,-1
 65 399 l 1,12,-1
 157 399 l 1,13,-1
 222 707 l 1,14,-1
 472 707 l 2,15,0
 591 707 591 707 657 652.5 c 128,-1,1
629 480 m 0,17,18
 629 553 629 553 587 588.5 c 128,-1,19
 545 624 545 624 460 624 c 2,20,-1
 298 624 l 1,21,-1
 250 399 l 1,22,-1
 418 399 l 1,23,-1
 400 316 l 1,24,-1
 232 316 l 1,25,-1
 182 83 l 1,26,-1
 361 83 l 2,27,28
 459 83 459 83 516 133 c 128,-1,29
 573 183 573 183 597 297 c 2,30,-1
 618 397 l 2,31,16
 629 448 629 448 629 480 c 0,17,18
EndSplineSet
EndChar

StartChar: multiply
Encoding: 215 215 154
Width: 527
GlyphClass: 2
Flags: W
LayerCount: 2
Fore
SplineSet
88 158 m 1,0,-1
 213 284 l 1,1,-1
 88 409 l 1,2,-1
 143 464 l 1,3,-1
 268 339 l 1,4,-1
 393 464 l 1,5,-1
 449 408 l 1,6,-1
 324 284 l 1,7,-1
 449 158 l 1,8,-1
 393 102 l 1,9,-1
 268 227 l 1,10,-1
 143 102 l 1,11,-1
 88 158 l 1,0,-1
EndSplineSet
EndChar

StartChar: Oslash
Encoding: 216 216 155
Width: 698
GlyphClass: 2
Flags: W
LayerCount: 2
Fore
SplineSet
640 627 m 1,0,1
 677 573 677 573 677 495 c 0,2,3
 677 455 677 455 668 406 c 2,4,-1
 643 288 l 2,5,6
 610 135 610 135 527.5 62.5 c 128,-1,7
 445 -10 445 -10 314 -10 c 0,8,9
 201 -10 201 -10 135 42 c 1,10,-1
 82 -20 l 1,11,-1
 8 -20 l 1,12,-1
 97 83 l 1,13,14
 61 134 61 134 61 213 c 0,15,16
 61 255 61 255 71 302 c 2,17,-1
 96 420 l 2,18,19
 128 574 128 574 210.5 646 c 128,-1,20
 293 718 293 718 425 718 c 0,21,22
 536 718 536 718 602 667 c 1,23,-1
 656 729 l 1,24,-1
 728 729 l 1,25,-1
 640 627 l 1,0,1
164 160 m 1,27,-1
 542 596 l 1,28,29
 498 635 498 635 420 635 c 0,30,31
 325 635 325 635 269 582.5 c 128,-1,32
 213 530 213 530 187 414 c 2,33,-1
 163 299 l 2,34,35
 154 258 154 258 154 223 c 0,36,26
 154 187 154 187 164 160 c 1,27,-1
572 549 m 1,38,-1
 196 112 l 1,39,40
 238 74 238 74 321 74 c 0,41,42
 414 74 414 74 469.5 125.5 c 128,-1,43
 525 177 525 177 550 290 c 2,44,-1
 574 403 l 2,45,46
 583 448 583 448 584 482 c 0,47,37
 583 520 583 520 572 549 c 1,38,-1
EndSplineSet
EndChar

StartChar: Thorn
Encoding: 222 222 161
Width: 651
GlyphClass: 2
Flags: W
LayerCount: 2
Fore
SplineSet
640 416 m 0,1,2
 640 341 640 341 605 282.5 c 128,-1,3
 570 224 570 224 506.5 192 c 128,-1,4
 443 160 443 160 359 160 c 2,5,-1
 146 160 l 1,6,-1
 113 0 l 1,7,-1
 19 0 l 1,8,-1
 170 707 l 1,9,-1
 263 707 l 1,10,-1
 237 582 l 1,11,-1
 433 582 l 2,12,0
 640 582 640 582 640 416 c 0,1,2
498 285 m 128,-1,14
 546 327 546 327 546 401 c 0,15,16
 546 451 546 451 514 475.5 c 128,-1,17
 482 500 482 500 417 500 c 2,18,-1
 219 500 l 1,19,-1
 164 243 l 1,20,-1
 361 243 l 2,21,13
 450 243 450 243 498 285 c 128,-1,14
EndSplineSet
EndChar

StartChar: germandbls
Encoding: 223 223 162
Width: 574
GlyphClass: 2
Flags: W
LayerCount: 2
Fore
SplineSet
242 73 m 1,0,-1
 274 73 l 2,1,2
 322 73 322 73 350.5 88 c 128,-1,3
 379 103 379 103 395.5 136.5 c 128,-1,4
 412 170 412 170 425 230 c 0,5,6
 437 288 437 288 437 314 c 0,7,8
 437 356 437 356 413.5 374.5 c 128,-1,9
 390 393 390 393 335 393 c 2,10,-1
 310 393 l 1,11,-1
 326 469 l 1,12,-1
 358 469 l 2,13,14
 417 469 417 469 451 495 c 128,-1,15
 485 521 485 521 485 569 c 0,16,17
 485 638 485 638 374 638 c 0,18,19
 300 638 300 638 262.5 609 c 128,-1,20
 225 580 225 580 210 508 c 2,21,-1
 102 0 l 1,22,-1
 15 0 l 1,23,-1
 122 506 l 2,24,25
 145 612 145 612 205.5 663.5 c 128,-1,26
 266 715 266 715 380 715 c 0,27,28
 473 715 473 715 524 680 c 128,-1,29
 575 645 575 645 575 583 c 0,30,31
 575 532 575 532 547.5 492 c 128,-1,32
 520 452 520 452 469 433 c 1,33,34
 500 417 500 417 513.5 393 c 128,-1,35
 527 369 527 369 527 332 c 0,36,37
 527 294 527 294 513 227 c 0,38,39
 494 140 494 140 465 90.5 c 128,-1,40
 436 41 436 41 388.5 18.5 c 128,-1,41
 341 -4 341 -4 264 -4 c 2,42,-1
 226 -4 l 1,43,-1
 242 73 l 1,0,-1
EndSplineSet
EndChar

StartChar: ae
Encoding: 230 230 169
Width: 933
GlyphClass: 2
Flags: W
LayerCount: 2
Fore
SplineSet
79 27 m 128,-1,1
 31 62 31 62 31 126 c 0,2,3
 31 212 31 212 94.5 257.5 c 128,-1,4
 158 303 158 303 267 303 c 2,5,-1
 425 303 l 1,6,7
 437 358 437 358 437 376 c 0,8,9
 437 460 437 460 323 460 c 0,10,11
 263 460 263 460 228 437 c 128,-1,12
 193 414 193 414 184 372 c 1,13,-1
 98 372 l 1,14,15
 114 447 114 447 177.5 488.5 c 128,-1,16
 241 530 241 530 337 530 c 0,17,18
 461 530 461 530 505 462 c 1,19,20
 538 498 538 498 586 515 c 128,-1,21
 634 532 634 532 691 532 c 0,22,23
 785 532 785 532 838 487 c 128,-1,24
 891 442 891 442 891 357 c 0,25,26
 891 323 891 323 884 288 c 2,27,-1
 874 242 l 1,28,-1
 502 242 l 1,29,-1
 498 222 l 2,30,31
 493 193 493 193 493 176 c 0,32,33
 493 121 493 121 528 94.5 c 128,-1,34
 563 68 563 68 622 68 c 0,35,36
 738 68 738 68 767 165 c 1,37,-1
 855 165 l 1,38,39
 832 79 832 79 771.5 35 c 128,-1,40
 711 -9 711 -9 621 -9 c 0,41,42
 478 -9 478 -9 429 85 c 1,43,44
 356 -8 356 -8 213 -8 c 0,45,0
 127 -8 127 -8 79 27 c 128,-1,1
800 305 m 1,46,47
 807 341 807 341 807 357 c 0,48,49
 807 405 807 405 773.5 430.5 c 128,-1,50
 740 456 740 456 683 456 c 0,51,52
 548 456 548 456 517 321 c 2,53,-1
 514 305 l 1,54,-1
 800 305 l 1,46,47
346.5 98 m 128,-1,56
 389 133 389 133 403 203 c 2,57,-1
 412 240 l 1,58,-1
 269 240 l 2,59,60
 197 240 197 240 157.5 214 c 128,-1,61
 118 188 118 188 118 139 c 0,62,63
 118 63 118 63 229 63 c 0,64,55
 304 63 304 63 346.5 98 c 128,-1,56
EndSplineSet
EndChar

StartChar: ccedilla
Encoding: 231 231 170
Width: 567
GlyphClass: 2
Flags: W
LayerCount: 2
Fore
SplineSet
441 343 m 1,0,-1
 442 358 l 1,1,2
 442 454 442 454 323 455 c 0,3,4
 254 455 254 455 211 419 c 128,-1,5
 168 383 168 383 151 300 c 2,6,-1
 138 245 l 2,7,8
 132 213 132 213 132 187 c 0,9,10
 132 68 132 68 262 69 c 0,11,12
 322 69 322 69 360 97 c 128,-1,13
 398 125 398 125 409 179 c 1,14,-1
 494 179 l 1,15,16
 482 99 482 99 428 49.5 c 128,-1,17
 374 0 374 0 289 -8 c 1,18,-1
 197 -156 l 1,19,-1
 105 -156 l 1,20,-1
 211 -6 l 1,21,22
 134 4 134 4 89.5 50 c 128,-1,23
 45 96 45 96 45 179 c 0,24,25
 45 210 45 210 52 247 c 2,26,-1
 65 307 l 2,27,28
 89 420 89 420 155.5 476 c 128,-1,29
 222 532 222 532 327 532 c 0,30,31
 419 532 419 532 473.5 490.5 c 128,-1,32
 528 449 528 449 528 369 c 0,33,34
 528 354 528 354 527 343 c 1,35,-1
 441 343 l 1,0,-1
EndSplineSet
EndChar

StartChar: eth
Encoding: 240 240 179
Width: 562
GlyphClass: 2
Flags: W
LayerCount: 2
Fore
SplineSet
501.5 415.5 m 128,-1,1
 514 374 514 374 514 330 c 0,2,3
 514 296 514 296 506 255 c 2,4,-1
 498 214 l 2,5,6
 475 108 475 108 406 49 c 128,-1,7
 337 -10 337 -10 236 -10 c 0,8,9
 145 -10 145 -10 93 36.5 c 128,-1,10
 41 83 41 83 41 164 c 0,11,12
 41 199 41 199 49 231 c 2,13,-1
 57 272 l 2,14,15
 79 372 79 372 143.5 427.5 c 128,-1,16
 208 483 208 483 302 483 c 0,17,18
 350 483 350 483 382 467 c 1,19,-1
 325 562 l 1,20,-1
 196 529 l 1,21,-1
 191 592 l 1,22,-1
 291 617 l 1,23,-1
 236 709 l 1,24,-1
 338 709 l 1,25,-1
 379 640 l 1,26,-1
 509 673 l 1,27,-1
 512 610 l 1,28,-1
 412 585 l 1,29,-1
 461 503 l 2,30,0
 489 457 489 457 501.5 415.5 c 128,-1,1
427 304 m 0,32,33
 427 353 427 353 395.5 380.5 c 128,-1,34
 364 408 364 408 306 408 c 0,35,36
 239 408 239 408 197.5 372 c 128,-1,37
 156 336 156 336 141 268 c 2,38,-1
 133 230 l 2,39,40
 127 202 127 202 127 177 c 0,41,42
 127 125 127 125 158.5 97 c 128,-1,43
 190 69 190 69 247 69 c 0,44,45
 314 69 314 69 356 106.5 c 128,-1,46
 398 144 398 144 413 213 c 2,47,-1
 421 253 l 2,48,31
 427 290 427 290 427 304 c 0,32,33
EndSplineSet
EndChar

StartChar: divide
Encoding: 247 247 186
Width: 527
GlyphClass: 2
Flags: W
LayerCount: 2
Fore
SplineSet
226 397 m 128,-1,1
 210 413 210 413 210 436 c 0,2,3
 210 459 210 459 226 474.5 c 128,-1,4
 242 490 242 490 264 490 c 0,5,6
 288 490 288 490 303.5 474.5 c 128,-1,7
 319 459 319 459 319 436 c 0,8,9
 319 412 319 412 303.5 396.5 c 128,-1,10
 288 381 288 381 264 381 c 0,11,0
 242 381 242 381 226 397 c 128,-1,1
59 324 m 1,12,-1
 477 324 l 1,13,-1
 477 242 l 1,14,-1
 59 242 l 1,15,-1
 59 324 l 1,12,-1
226 92.5 m 128,-1,17
 210 109 210 109 210 131 c 0,18,19
 210 155 210 155 226 170.5 c 128,-1,20
 242 186 242 186 264 186 c 0,21,22
 288 186 288 186 303.5 170.5 c 128,-1,23
 319 155 319 155 319 131 c 256,24,25
 319 107 319 107 303.5 91.5 c 128,-1,26
 288 76 288 76 264 76 c 0,27,16
 242 76 242 76 226 92.5 c 128,-1,17
EndSplineSet
EndChar

StartChar: oslash
Encoding: 248 248 187
Width: 577
GlyphClass: 2
Flags: W
LayerCount: 2
Fore
SplineSet
500 462 m 1,0,1
 534 417 534 417 534 349 c 0,2,3
 534 318 534 318 525 280 c 2,4,-1
 512 216 l 2,5,6
 489 103 489 103 421.5 47 c 128,-1,7
 354 -9 354 -9 254 -9 c 0,8,9
 165 -9 165 -9 113 30 c 1,10,-1
 58 -31 l 1,11,-1
 -3 -31 l 1,12,-1
 79 61 l 1,13,14
 45 106 45 106 45 175 c 0,15,16
 45 209 45 209 52 245 c 2,17,-1
 65 308 l 2,18,19
 89 420 89 420 155.5 476 c 128,-1,20
 222 532 222 532 325 532 c 0,21,22
 413 532 413 532 467 494 c 1,23,-1
 517 550 l 1,24,-1
 579 550 l 1,25,-1
 500 462 l 1,0,1
142 131 m 1,27,-1
 409 428 l 1,28,29
 376 455 376 455 317 455 c 0,30,31
 251 455 251 455 209.5 419 c 128,-1,32
 168 383 168 383 151 300 c 2,33,-1
 138 242 l 2,34,35
 132 210 132 210 132 185 c 0,36,26
 132 153 132 153 142 131 c 1,27,-1
436 390 m 1,38,-1
 170 94 l 1,39,40
 203 68 203 68 262 69 c 0,41,42
 327 69 327 69 368 105 c 128,-1,43
 409 141 409 141 426 224 c 2,44,-1
 438 282 l 2,45,46
 444 309 444 309 444 339 c 0,47,37
 444 367 444 367 436 390 c 1,38,-1
EndSplineSet
EndChar

StartChar: thorn
Encoding: 254 254 193
Width: 584
GlyphClass: 2
Flags: W
LayerCount: 2
Fore
SplineSet
165 707 m 1,0,-1
 252 707 l 1,1,-1
 200 459 l 1,2,3
 266 534 266 534 359 534 c 0,4,5
 441 534 441 534 491 487.5 c 128,-1,6
 541 441 541 441 541 353 c 0,7,8
 541 317 541 317 532 278 c 2,9,-1
 519 219 l 2,10,11
 495 105 495 105 431.5 48 c 128,-1,12
 368 -9 368 -9 273 -9 c 0,13,14
 162 -9 162 -9 116 72 c 1,15,-1
 68 -157 l 1,16,-1
 -18 -157 l 1,17,-1
 165 707 l 1,0,-1
433 223 m 2,19,-1
 445 281 l 2,20,21
 451 314 451 314 452 338 c 0,22,23
 452 397 452 397 419.5 426 c 128,-1,24
 387 455 387 455 335 455 c 0,25,26
 268 455 268 455 223.5 411.5 c 128,-1,27
 179 368 179 368 165 298 c 2,28,-1
 154 245 l 2,29,30
 147 214 147 214 146 188 c 0,31,32
 146 133 146 133 179 101 c 128,-1,33
 212 69 212 69 271 69 c 0,34,18
 399 68 399 68 433 223 c 2,19,-1
EndSplineSet
EndChar

StartChar: dotlessi
Encoding: 305 305 195
Width: 227
GlyphClass: 2
Flags: W
LayerCount: 2
Fore
SplineSet
126 523 m 1,0,-1
 212 523 l 1,1,-1
 101 0 l 1,2,-1
 15 0 l 1,3,-1
 126 523 l 1,0,-1
EndSplineSet
EndChar

StartChar: OE
Encoding: 338 338 196
Width: 1088
GlyphClass: 2
Flags: W
LayerCount: 2
Fore
SplineSet
716 624 m 1,0,-1
 668 399 l 1,1,-1
 1010 399 l 1,2,-1
 992 317 l 1,3,-1
 650 317 l 1,4,-1
 600 83 l 1,5,-1
 998 83 l 1,6,-1
 980 0 l 1,7,-1
 489 0 l 1,8,-1
 498 39 l 1,9,10
 425 -10 425 -10 314 -10 c 0,11,12
 196 -10 196 -10 128.5 47 c 128,-1,13
 61 104 61 104 61 213 c 0,14,15
 61 255 61 255 71 302 c 2,16,-1
 96 420 l 2,17,18
 128 574 128 574 210.5 646 c 128,-1,19
 293 718 293 718 425 718 c 0,20,21
 492 718 492 718 543 699 c 128,-1,22
 594 680 594 680 627 643 c 1,23,-1
 640 707 l 1,24,-1
 1130 707 l 1,25,-1
 1113 624 l 1,26,-1
 716 624 l 1,0,-1
469.5 125.5 m 128,-1,28
 525 177 525 177 550 290 c 2,29,-1
 574 403 l 2,30,31
 583 448 583 448 584 482 c 0,32,33
 584 558 584 558 541.5 596.5 c 128,-1,34
 499 635 499 635 420 635 c 0,35,36
 325 635 325 635 269 582.5 c 128,-1,37
 213 530 213 530 187 414 c 2,38,-1
 163 299 l 2,39,40
 154 258 154 258 154 223 c 0,41,42
 154 148 154 148 197 111 c 128,-1,43
 240 74 240 74 321 74 c 0,44,27
 414 74 414 74 469.5 125.5 c 128,-1,28
EndSplineSet
EndChar

StartChar: oe
Encoding: 339 339 197
Width: 951
GlyphClass: 2
Flags: W
LayerCount: 2
Fore
SplineSet
854 486.5 m 128,-1,1
 908 441 908 441 908 356 c 0,2,3
 908 321 908 321 901 287 c 2,4,-1
 892 242 l 1,5,-1
 518 242 l 1,6,7
 512 210 512 210 512 183 c 0,8,9
 512 123 512 123 547 95.5 c 128,-1,10
 582 68 582 68 642 68 c 0,11,12
 699 68 699 68 735.5 92.5 c 128,-1,13
 772 117 772 117 784 165 c 1,14,-1
 872 165 l 1,15,16
 855 81 855 81 793.5 36 c 128,-1,17
 732 -9 732 -9 637 -9 c 0,18,19
 574 -9 574 -9 525 12.5 c 128,-1,20
 476 34 476 34 451 77 c 1,21,22
 381 -9 381 -9 254 -9 c 0,23,24
 160 -9 160 -9 102.5 37.5 c 128,-1,25
 45 84 45 84 45 175 c 0,26,27
 45 209 45 209 52 245 c 2,28,-1
 65 308 l 2,29,30
 89 420 89 420 155.5 476 c 128,-1,31
 222 532 222 532 325 532 c 0,32,33
 388 532 388 532 435.5 511 c 128,-1,34
 483 490 483 490 508 449 c 1,35,36
 579 533 579 533 706 532 c 0,37,0
 800 532 800 532 854 486.5 c 128,-1,1
824 356 m 0,39,40
 824 405 824 405 791.5 430.5 c 128,-1,41
 759 456 759 456 700 456 c 0,42,43
 634 456 634 456 591 420.5 c 128,-1,44
 548 385 548 385 531 305 c 1,45,-1
 818 305 l 1,46,-1
 820 318 l 2,47,38
 824 338 824 338 824 356 c 0,39,40
368 105 m 128,-1,49
 409 141 409 141 426 224 c 2,50,-1
 438 282 l 2,51,52
 444 309 444 309 444 339 c 0,53,54
 444 399 444 399 410.5 427 c 128,-1,55
 377 455 377 455 317 455 c 0,56,57
 251 455 251 455 209.5 419 c 128,-1,58
 168 383 168 383 151 300 c 2,59,-1
 138 242 l 2,60,61
 132 210 132 210 132 185 c 0,62,63
 132 125 132 125 167 97 c 128,-1,64
 202 69 202 69 262 69 c 0,65,48
 327 69 327 69 368 105 c 128,-1,49
EndSplineSet
EndChar

StartChar: florin
Encoding: 402 402 203
Width: 471
GlyphClass: 2
Flags: W
LayerCount: 2
Fore
SplineSet
-58 -74 m 1,0,-1
 -12 -74 l 2,1,2
 32 -74 32 -74 55.5 -56 c 128,-1,3
 79 -38 79 -38 97 12 c 2,4,-1
 217 345 l 1,5,-1
 115 345 l 1,6,-1
 131 424 l 1,7,-1
 246 424 l 1,8,-1
 289 543 l 2,9,10
 322 631 322 631 370 669 c 128,-1,11
 418 707 418 707 498 707 c 2,12,-1
 554 707 l 1,13,-1
 537 624 l 1,14,-1
 484 624 l 2,15,16
 441 624 441 624 417 605.5 c 128,-1,17
 393 587 393 587 377 540 c 2,18,-1
 335 424 l 1,19,-1
 462 424 l 1,20,-1
 445 345 l 1,21,-1
 306 345 l 1,22,-1
 183 9 l 2,23,24
 150 -82 150 -82 103 -119.5 c 128,-1,25
 56 -157 56 -157 -26 -157 c 2,26,-1
 -77 -157 l 1,27,-1
 -58 -74 l 1,0,-1
EndSplineSet
EndChar

StartChar: circumflex
Encoding: 710 710 204
Width: 505
GlyphClass: 2
Flags: W
LayerCount: 2
Fore
SplineSet
317 730 m 1,0,-1
 385 730 l 1,1,-1
 484 581 l 1,2,-1
 407 581 l 1,3,-1
 343 673 l 1,4,-1
 240 581 l 1,5,-1
 156 581 l 1,6,-1
 317 730 l 1,0,-1
EndSplineSet
EndChar

StartChar: caron
Encoding: 711 711 205
Width: 512
GlyphClass: 2
Flags: W
LayerCount: 2
Fore
SplineSet
189 728 m 1,0,-1
 267 728 l 1,1,-1
 331 635 l 1,2,-1
 434 728 l 1,3,-1
 519 728 l 1,4,-1
 356 579 l 1,5,-1
 289 579 l 1,6,-1
 189 728 l 1,0,-1
EndSplineSet
EndChar

StartChar: dotaccent
Encoding: 729 729 206
Width: 512
GlyphClass: 2
Flags: W
LayerCount: 2
Fore
SplineSet
296 701 m 1,0,-1
 386 701 l 1,1,-1
 366 606 l 1,2,-1
 275 606 l 1,3,-1
 296 701 l 1,0,-1
EndSplineSet
EndChar

StartChar: ring
Encoding: 730 730 207
Width: 512
GlyphClass: 2
Flags: W
LayerCount: 2
Fore
SplineSet
274.5 612 m 128,-1,1
 247 639 247 639 247 681 c 256,2,3
 247 723 247 723 274.5 751 c 128,-1,4
 302 779 302 779 344 779 c 0,5,6
 385 779 385 779 412.5 751 c 128,-1,7
 440 723 440 723 440 681 c 0,8,9
 440 640 440 640 413 612.5 c 128,-1,10
 386 585 386 585 344 585 c 256,11,0
 302 585 302 585 274.5 612 c 128,-1,1
381 643.5 m 128,-1,13
 395 658 395 658 395 681 c 0,14,15
 395 705 395 705 381 720 c 128,-1,16
 367 735 367 735 344 735 c 256,17,18
 321 735 321 735 306.5 720 c 128,-1,19
 292 705 292 705 292 681 c 0,20,21
 292 658 292 658 307 643.5 c 128,-1,22
 322 629 322 629 344 629 c 256,23,12
 367 629 367 629 381 643.5 c 128,-1,13
EndSplineSet
EndChar

StartChar: tilde
Encoding: 732 732 208
Width: 505
GlyphClass: 2
Flags: W
LayerCount: 2
Fore
SplineSet
190 659 m 1,0,1
 214 678 214 678 235 688 c 128,-1,2
 256 698 256 698 281 698 c 0,3,4
 300 698 300 698 315 693 c 128,-1,5
 330 688 330 688 348 678 c 0,6,7
 367 669 367 669 379.5 664 c 128,-1,8
 392 659 392 659 410 659 c 0,9,10
 433 659 433 659 450.5 668 c 128,-1,11
 468 677 468 677 498 698 c 1,12,-1
 482 626 l 1,13,14
 459 607 459 607 438.5 597.5 c 128,-1,15
 418 588 418 588 393 588 c 0,16,17
 373 588 373 588 358 593 c 128,-1,18
 343 598 343 598 324 608 c 0,19,20
 307 617 307 617 294 622 c 128,-1,21
 281 627 281 627 264 627 c 0,22,23
 242 627 242 627 223.5 618 c 128,-1,24
 205 609 205 609 175 587 c 1,25,-1
 190 659 l 1,0,1
EndSplineSet
EndChar

StartChar: gravecomb
Encoding: 768 768 209
Width: 0
GlyphClass: 2
Flags: W
LayerCount: 2
Fore
SplineSet
-70 721 m 1,0,-1
 38 721 l 1,1,-1
 127 591 l 1,2,-1
 48 591 l 1,3,-1
 -70 721 l 1,0,-1
EndSplineSet
EndChar

StartChar: acutecomb
Encoding: 769 769 210
Width: 0
GlyphClass: 2
Flags: W
LayerCount: 2
Fore
SplineSet
120 721 m 1,0,-1
 231 721 l 1,1,-1
 75 591 l 1,2,-1
 -8 591 l 1,3,-1
 120 721 l 1,0,-1
EndSplineSet
EndChar

StartChar: uni0302
Encoding: 770 770 211
Width: 0
GlyphClass: 2
Flags: W
LayerCount: 2
Fore
SplineSet
62 730 m 1,0,-1
 130 730 l 1,1,-1
 229 581 l 1,2,-1
 152 581 l 1,3,-1
 88 673 l 1,4,-1
 -16 581 l 1,5,-1
 -100 581 l 1,6,-1
 62 730 l 1,0,-1
EndSplineSet
EndChar

StartChar: tildecomb
Encoding: 771 771 212
Width: 0
GlyphClass: 2
Flags: W
LayerCount: 2
Fore
SplineSet
-66 659 m 1,0,1
 -42 678 -42 678 -21 688 c 128,-1,2
 0 698 0 698 25 698 c 0,3,4
 44 698 44 698 59 693 c 128,-1,5
 74 688 74 688 92 678 c 0,6,7
 111 669 111 669 123.5 664 c 128,-1,8
 136 659 136 659 154 659 c 0,9,10
 177 659 177 659 194.5 668 c 128,-1,11
 212 677 212 677 242 698 c 1,12,-1
 226 626 l 1,13,14
 203 607 203 607 182.5 597.5 c 128,-1,15
 162 588 162 588 137 588 c 0,16,17
 117 588 117 588 102 593 c 128,-1,18
 87 598 87 598 68 608 c 0,19,20
 51 617 51 617 38 622 c 128,-1,21
 25 627 25 627 8 627 c 0,22,23
 -14 627 -14 627 -32.5 618 c 128,-1,24
 -51 609 -51 609 -81 587 c 1,25,-1
 -66 659 l 1,0,1
EndSplineSet
EndChar

StartChar: uni0308
Encoding: 776 776 213
Width: 0
GlyphClass: 2
Flags: W
LayerCount: 2
Fore
SplineSet
-62 692 m 1,0,-1
 25 692 l 1,1,-1
 4 595 l 1,2,-1
 -83 595 l 1,3,-1
 -62 692 l 1,0,-1
154 692 m 1,4,-1
 242 692 l 1,5,-1
 221 595 l 1,6,-1
 134 595 l 1,7,-1
 154 692 l 1,4,-1
EndSplineSet
EndChar

StartChar: uni030A
Encoding: 778 778 214
Width: 0
GlyphClass: 2
Flags: W
LayerCount: 2
Fore
SplineSet
18.5 612.5 m 128,-1,1
 -9 640 -9 640 -9 681 c 0,2,3
 -9 723 -9 723 18.5 751 c 128,-1,4
 46 779 46 779 87 779 c 0,5,6
 129 779 129 779 156.5 751 c 128,-1,7
 184 723 184 723 184 681 c 256,8,9
 184 639 184 639 156.5 612 c 128,-1,10
 129 585 129 585 87 585 c 0,11,0
 46 585 46 585 18.5 612.5 c 128,-1,1
124.5 643.5 m 128,-1,13
 139 658 139 658 139 681 c 0,14,15
 139 705 139 705 124.5 720 c 128,-1,16
 110 735 110 735 87 735 c 0,17,18
 65 735 65 735 50.5 719 c 128,-1,19
 36 703 36 703 36 681 c 256,20,21
 36 658 36 658 51 643.5 c 128,-1,22
 66 629 66 629 87 629 c 0,23,12
 110 629 110 629 124.5 643.5 c 128,-1,13
EndSplineSet
EndChar

StartChar: endash
Encoding: 8211 8211 215
Width: 480
GlyphClass: 2
Flags: W
LayerCount: 2
Fore
SplineSet
29 396 m 1,0,-1
 509 396 l 1,1,-1
 492 313 l 1,2,-1
 11 313 l 1,3,-1
 29 396 l 1,0,-1
EndSplineSet
EndChar

StartChar: emdash
Encoding: 8212 8212 216
Width: 959
GlyphClass: 2
Flags: W
LayerCount: 2
Fore
SplineSet
29 396 m 1,0,-1
 988 396 l 1,1,-1
 971 313 l 1,2,-1
 11 313 l 1,3,-1
 29 396 l 1,0,-1
EndSplineSet
EndChar

StartChar: quoteleft
Encoding: 8216 8216 217
Width: 183
GlyphClass: 2
Flags: W
LayerCount: 2
Fore
SplineSet
134 659 m 1,0,-1
 234 734 l 1,1,-1
 178 477 l 1,2,-1
 95 477 l 1,3,-1
 134 659 l 1,0,-1
EndSplineSet
EndChar

StartChar: quotedblleft
Encoding: 8220 8220 220
Width: 352
GlyphClass: 2
Flags: W
LayerCount: 2
Fore
SplineSet
134 659 m 1,0,-1
 234 734 l 1,1,-1
 179 477 l 1,2,-1
 95 477 l 1,3,-1
 134 659 l 1,0,-1
302 659 m 1,4,-1
 402 734 l 1,5,-1
 347 477 l 1,6,-1
 263 477 l 1,7,-1
 302 659 l 1,4,-1
EndSplineSet
EndChar

StartChar: quotedblright
Encoding: 8221 8221 221
Width: 352
GlyphClass: 2
Flags: W
LayerCount: 2
Fore
SplineSet
145 708 m 1,0,-1
 228 708 l 1,1,-1
 190 525 l 1,2,-1
 89 451 l 1,3,-1
 145 708 l 1,0,-1
313 708 m 1,4,-1
 396 708 l 1,5,-1
 358 525 l 1,6,-1
 257 451 l 1,7,-1
 313 708 l 1,4,-1
EndSplineSet
EndChar

StartChar: dagger
Encoding: 8224 8224 223
Width: 598
GlyphClass: 2
Flags: W
LayerCount: 2
Fore
SplineSet
554 384 m 1,0,-1
 372 384 l 1,1,-1
 257 -157 l 1,2,-1
 164 -157 l 1,3,-1
 280 384 l 1,4,-1
 96 384 l 1,5,-1
 114 466 l 1,6,-1
 297 466 l 1,7,-1
 348 707 l 1,8,-1
 440 707 l 1,9,-1
 389 466 l 1,10,-1
 571 466 l 1,11,-1
 554 384 l 1,0,-1
EndSplineSet
EndChar

StartChar: daggerdbl
Encoding: 8225 8225 224
Width: 598
GlyphClass: 2
Flags: W
LayerCount: 2
Fore
SplineSet
374 388 m 1,0,-1
 326 166 l 1,1,-1
 508 166 l 1,2,-1
 489 83 l 1,3,-1
 308 83 l 1,4,-1
 257 -157 l 1,5,-1
 165 -157 l 1,6,-1
 216 83 l 1,7,-1
 32 83 l 1,8,-1
 50 166 l 1,9,-1
 233 166 l 1,10,-1
 281 388 l 1,11,-1
 97 388 l 1,12,-1
 115 471 l 1,13,-1
 298 471 l 1,14,-1
 348 707 l 1,15,-1
 441 707 l 1,16,-1
 391 471 l 1,17,-1
 572 471 l 1,18,-1
 555 388 l 1,19,-1
 374 388 l 1,0,-1
EndSplineSet
EndChar

StartChar: bullet
Encoding: 8226 8226 225
Width: 484
GlyphClass: 2
Flags: W
LayerCount: 2
Fore
SplineSet
158.5 220.5 m 128,-1,1
 121 258 121 258 121 315 c 256,2,3
 121 372 121 372 158.5 409.5 c 128,-1,4
 196 447 196 447 254 447 c 0,5,6
 311 447 311 447 348.5 410 c 128,-1,7
 386 373 386 373 386 315 c 256,8,9
 386 258 386 258 348.5 220.5 c 128,-1,10
 311 183 311 183 254 183 c 0,11,0
 196 183 196 183 158.5 220.5 c 128,-1,1
EndSplineSet
EndChar

StartChar: perthousand
Encoding: 8240 8240 227
Width: 1416
GlyphClass: 2
Flags: W
LayerCount: 2
Fore
SplineSet
115.5 300.5 m 128,-1,1
 83 329 83 329 83 382 c 0,2,3
 83 410 83 410 90 441 c 2,4,-1
 115 554 l 2,5,6
 131 633 131 633 172.5 673.5 c 128,-1,7
 214 714 214 714 285 714 c 0,8,9
 345 714 345 714 378 686 c 128,-1,10
 411 658 411 658 411 607 c 0,11,12
 411 583 411 583 403 551 c 2,13,-1
 380 438 l 2,14,15
 363 354 363 354 321.5 313 c 128,-1,16
 280 272 280 272 208 272 c 0,17,0
 148 272 148 272 115.5 300.5 c 128,-1,1
755 709 m 1,18,-1
 833 709 l 1,19,-1
 305 0 l 1,20,-1
 228 0 l 1,21,-1
 755 709 l 1,18,-1
271 364.5 m 128,-1,23
 288 387 288 387 300 441 c 2,24,-1
 322 543 l 2,25,26
 328 573 328 573 328 592 c 0,27,28
 328 644 328 644 274 644 c 0,29,30
 240 644 240 644 222.5 621 c 128,-1,31
 205 598 205 598 194 546 c 2,32,-1
 172 445 l 2,33,34
 165 409 165 409 165 395 c 0,35,36
 165 342 165 342 219 342 c 0,37,22
 254 342 254 342 271 364.5 c 128,-1,23
681.5 22 m 128,-1,39
 649 50 649 50 649 103 c 0,40,41
 649 131 649 131 656 163 c 2,42,-1
 680 275 l 2,43,44
 697 355 697 355 738 395 c 128,-1,45
 779 435 779 435 851 435 c 0,46,47
 911 435 911 435 943.5 407.5 c 128,-1,48
 976 380 976 380 976 329 c 0,49,50
 976 310 976 310 970 272 c 2,51,-1
 946 160 l 2,52,53
 928 76 928 76 886.5 35 c 128,-1,54
 845 -6 845 -6 774 -6 c 0,55,38
 714 -6 714 -6 681.5 22 c 128,-1,39
1078 22 m 128,-1,57
 1046 50 1046 50 1046 103 c 0,58,59
 1046 131 1046 131 1053 163 c 2,60,-1
 1076 275 l 2,61,62
 1093 355 1093 355 1134.5 395 c 128,-1,63
 1176 435 1176 435 1247 435 c 0,64,65
 1307 435 1307 435 1339.5 407.5 c 128,-1,66
 1372 380 1372 380 1372 329 c 0,67,68
 1372 310 1372 310 1366 272 c 2,69,-1
 1342 160 l 2,70,71
 1324 76 1324 76 1282.5 35 c 128,-1,72
 1241 -6 1241 -6 1170 -6 c 0,73,56
 1110 -6 1110 -6 1078 22 c 128,-1,57
836.5 85.5 m 128,-1,75
 854 109 854 109 865 163 c 2,76,-1
 887 264 l 2,77,78
 894 298 894 298 894 313 c 0,79,80
 894 365 894 365 840 366 c 0,81,82
 806 366 806 366 788.5 343.5 c 128,-1,83
 771 321 771 321 759 267 c 2,84,-1
 737 166 l 2,85,86
 731 137 731 137 731 117 c 0,87,88
 731 63 731 63 784 62 c 0,89,74
 819 62 819 62 836.5 85.5 c 128,-1,75
1232.5 85.5 m 128,-1,91
 1250 109 1250 109 1262 163 c 2,92,-1
 1283 264 l 2,93,94
 1290 298 1290 298 1290 313 c 0,95,96
 1290 365 1290 365 1236 366 c 0,97,98
 1202 366 1202 366 1184.5 343.5 c 128,-1,99
 1167 321 1167 321 1155 267 c 2,100,-1
 1134 166 l 2,101,102
 1128 137 1128 137 1127 117 c 0,103,104
 1127 63 1127 63 1181 62 c 0,105,90
 1215 62 1215 62 1232.5 85.5 c 128,-1,91
EndSplineSet
EndChar

StartChar: guilsinglleft
Encoding: 8249 8249 228
Width: 330
GlyphClass: 2
Flags: W
LayerCount: 2
Fore
SplineSet
26 270 m 1,0,-1
 307 482 l 1,1,-1
 287 386 l 1,2,-1
 130 269 l 1,3,-1
 237 153 l 1,4,-1
 217 58 l 1,5,-1
 26 270 l 1,0,-1
EndSplineSet
Substitution2: "'rtla' Right to Left Alternates lookup 0 subtable" guilsinglright
EndChar

StartChar: guilsinglright
Encoding: 8250 8250 229
Width: 330
GlyphClass: 2
Flags: W
LayerCount: 2
Fore
SplineSet
48 155 m 1,0,-1
 204 271 l 1,1,-1
 97 388 l 1,2,-1
 117 482 l 1,3,-1
 309 270 l 1,4,-1
 28 58 l 1,5,-1
 48 155 l 1,0,-1
EndSplineSet
Substitution2: "'rtla' Right to Left Alternates lookup 0 subtable" guilsinglleft
EndChar

StartChar: Euro
Encoding: 8364 8364 230
Width: 626
GlyphClass: 2
Flags: W
LayerCount: 2
Fore
SplineSet
153 35 m 128,-1,1
 99 80 99 80 99 158 c 0,2,3
 99 188 99 188 106 225 c 2,4,-1
 113 257 l 1,5,-1
 46 257 l 1,6,-1
 59 323 l 1,7,-1
 127 323 l 1,8,-1
 141 389 l 1,9,-1
 74 389 l 1,10,-1
 88 455 l 1,11,-1
 155 455 l 1,12,-1
 163 493 l 2,13,14
 187 597 187 597 254.5 657 c 128,-1,15
 322 717 322 717 429 717 c 0,16,17
 522 717 522 717 572.5 673 c 128,-1,18
 623 629 623 629 623 544 c 1,19,-1
 540 544 l 1,20,21
 540 637 540 637 421 637 c 0,22,23
 347 637 347 637 307.5 600 c 128,-1,24
 268 563 268 563 253 492 c 2,25,-1
 245 455 l 1,26,-1
 490 455 l 1,27,-1
 463 389 l 1,28,-1
 230 389 l 1,29,-1
 217 323 l 1,30,-1
 435 323 l 1,31,-1
 409 257 l 1,32,-1
 202 257 l 1,33,-1
 195 223 l 2,34,35
 190 199 190 199 189 173 c 0,36,37
 189 124 189 124 219.5 97 c 128,-1,38
 250 70 250 70 311 70 c 0,39,40
 428 70 428 70 459 163 c 1,41,-1
 544 163 l 1,42,43
 524 80 524 80 460 35 c 128,-1,44
 396 -10 396 -10 302 -10 c 0,45,0
 207 -10 207 -10 153 35 c 128,-1,1
EndSplineSet
EndChar

StartChar: trademark
Encoding: 8482 8482 231
Width: 1004
GlyphClass: 2
Flags: W
LayerCount: 2
Fore
SplineSet
266 644 m 1,0,-1
 132 644 l 1,1,-1
 132 707 l 1,2,-1
 470 707 l 1,3,-1
 470 644 l 1,4,-1
 337 644 l 1,5,-1
 337 303 l 1,6,-1
 266 303 l 1,7,-1
 266 644 l 1,0,-1
537 707 m 1,8,-1
 601 707 l 1,9,-1
 737 442 l 1,10,-1
 741 442 l 1,11,-1
 873 707 l 1,12,-1
 938 707 l 1,13,-1
 938 303 l 1,14,-1
 872 303 l 1,15,-1
 872 566 l 1,16,-1
 869 566 l 1,17,-1
 763 362 l 1,18,-1
 713 362 l 1,19,-1
 605 566 l 1,20,-1
 603 566 l 1,21,-1
 603 303 l 1,22,-1
 537 303 l 1,23,-1
 537 707 l 1,8,-1
EndSplineSet
EndChar

